<?xml version="1.0" encoding="utf-8"?>
<svg xmlns="http://www.w3.org/2000/svg" xmlns:xlink="http://www.w3.org/1999/xlink" width="600" height="400" viewBox="0 0 2400 1600">
<defs>
  <clipPath id="clip030">
    <rect x="0" y="0" width="2400" height="1600"/>
  </clipPath>
</defs>
<path clip-path="url(#clip030)" d="M0 1600 L2400 1600 L2400 0 L0 0  Z" fill="#ffffff" fill-rule="evenodd" fill-opacity="1"/>
<defs>
  <clipPath id="clip031">
    <rect x="480" y="0" width="1681" height="1600"/>
  </clipPath>
</defs>
<path clip-path="url(#clip030)" d="M193.936 1486.45 L2352.76 1486.45 L2352.76 47.2441 L193.936 47.2441  Z" fill="#ffffff" fill-rule="evenodd" fill-opacity="1"/>
<defs>
  <clipPath id="clip032">
    <rect x="193" y="47" width="2160" height="1440"/>
  </clipPath>
</defs>
<polyline clip-path="url(#clip030)" style="stroke:#000000; stroke-linecap:round; stroke-linejoin:round; stroke-width:4; stroke-opacity:1; fill:none" points="193.936,1486.45 2352.76,1486.45 "/>
<polyline clip-path="url(#clip030)" style="stroke:#000000; stroke-linecap:round; stroke-linejoin:round; stroke-width:4; stroke-opacity:1; fill:none" points="255.035,1486.45 255.035,1467.55 "/>
<polyline clip-path="url(#clip030)" style="stroke:#000000; stroke-linecap:round; stroke-linejoin:round; stroke-width:4; stroke-opacity:1; fill:none" points="752.257,1486.45 752.257,1467.55 "/>
<polyline clip-path="url(#clip030)" style="stroke:#000000; stroke-linecap:round; stroke-linejoin:round; stroke-width:4; stroke-opacity:1; fill:none" points="1249.48,1486.45 1249.48,1467.55 "/>
<polyline clip-path="url(#clip030)" style="stroke:#000000; stroke-linecap:round; stroke-linejoin:round; stroke-width:4; stroke-opacity:1; fill:none" points="1746.7,1486.45 1746.7,1467.55 "/>
<polyline clip-path="url(#clip030)" style="stroke:#000000; stroke-linecap:round; stroke-linejoin:round; stroke-width:4; stroke-opacity:1; fill:none" points="2243.92,1486.45 2243.92,1467.55 "/>
<path clip-path="url(#clip030)" d="M172.095 1517.37 Q168.484 1517.37 166.656 1520.93 Q164.85 1524.47 164.85 1531.6 Q164.85 1538.71 166.656 1542.27 Q168.484 1545.82 172.095 1545.82 Q175.73 1545.82 177.535 1542.27 Q179.364 1538.71 179.364 1531.6 Q179.364 1524.47 177.535 1520.93 Q175.73 1517.37 172.095 1517.37 M172.095 1513.66 Q177.905 1513.66 180.961 1518.27 Q184.04 1522.85 184.04 1531.6 Q184.04 1540.33 180.961 1544.94 Q177.905 1549.52 172.095 1549.52 Q166.285 1549.52 163.206 1544.94 Q160.151 1540.33 160.151 1531.6 Q160.151 1522.85 163.206 1518.27 Q166.285 1513.66 172.095 1513.66 Z" fill="#000000" fill-rule="nonzero" fill-opacity="1" /><path clip-path="url(#clip030)" d="M192.257 1542.97 L197.141 1542.97 L197.141 1548.85 L192.257 1548.85 L192.257 1542.97 Z" fill="#000000" fill-rule="nonzero" fill-opacity="1" /><path clip-path="url(#clip030)" d="M217.327 1517.37 Q213.715 1517.37 211.887 1520.93 Q210.081 1524.47 210.081 1531.6 Q210.081 1538.71 211.887 1542.27 Q213.715 1545.82 217.327 1545.82 Q220.961 1545.82 222.766 1542.27 Q224.595 1538.71 224.595 1531.6 Q224.595 1524.47 222.766 1520.93 Q220.961 1517.37 217.327 1517.37 M217.327 1513.66 Q223.137 1513.66 226.192 1518.27 Q229.271 1522.85 229.271 1531.6 Q229.271 1540.33 226.192 1544.94 Q223.137 1549.52 217.327 1549.52 Q211.516 1549.52 208.438 1544.94 Q205.382 1540.33 205.382 1531.6 Q205.382 1522.85 208.438 1518.27 Q211.516 1513.66 217.327 1513.66 Z" fill="#000000" fill-rule="nonzero" fill-opacity="1" /><path clip-path="url(#clip030)" d="M247.488 1517.37 Q243.877 1517.37 242.049 1520.93 Q240.243 1524.47 240.243 1531.6 Q240.243 1538.71 242.049 1542.27 Q243.877 1545.82 247.488 1545.82 Q251.123 1545.82 252.928 1542.27 Q254.757 1538.71 254.757 1531.6 Q254.757 1524.47 252.928 1520.93 Q251.123 1517.37 247.488 1517.37 M247.488 1513.66 Q253.299 1513.66 256.354 1518.27 Q259.433 1522.85 259.433 1531.6 Q259.433 1540.33 256.354 1544.94 Q253.299 1549.52 247.488 1549.52 Q241.678 1549.52 238.6 1544.94 Q235.544 1540.33 235.544 1531.6 Q235.544 1522.85 238.6 1518.27 Q241.678 1513.66 247.488 1513.66 Z" fill="#000000" fill-rule="nonzero" fill-opacity="1" /><path clip-path="url(#clip030)" d="M277.65 1517.37 Q274.039 1517.37 272.211 1520.93 Q270.405 1524.47 270.405 1531.6 Q270.405 1538.71 272.211 1542.27 Q274.039 1545.82 277.65 1545.82 Q281.285 1545.82 283.09 1542.27 Q284.919 1538.71 284.919 1531.6 Q284.919 1524.47 283.09 1520.93 Q281.285 1517.37 277.65 1517.37 M277.65 1513.66 Q283.46 1513.66 286.516 1518.27 Q289.595 1522.85 289.595 1531.6 Q289.595 1540.33 286.516 1544.94 Q283.46 1549.52 277.65 1549.52 Q271.84 1549.52 268.761 1544.94 Q265.706 1540.33 265.706 1531.6 Q265.706 1522.85 268.761 1518.27 Q271.84 1513.66 277.65 1513.66 Z" fill="#000000" fill-rule="nonzero" fill-opacity="1" /><path clip-path="url(#clip030)" d="M307.812 1517.37 Q304.201 1517.37 302.372 1520.93 Q300.567 1524.47 300.567 1531.6 Q300.567 1538.71 302.372 1542.27 Q304.201 1545.82 307.812 1545.82 Q311.446 1545.82 313.252 1542.27 Q315.081 1538.71 315.081 1531.6 Q315.081 1524.47 313.252 1520.93 Q311.446 1517.37 307.812 1517.37 M307.812 1513.66 Q313.622 1513.66 316.678 1518.27 Q319.757 1522.85 319.757 1531.6 Q319.757 1540.33 316.678 1544.94 Q313.622 1549.52 307.812 1549.52 Q302.002 1549.52 298.923 1544.94 Q295.868 1540.33 295.868 1531.6 Q295.868 1522.85 298.923 1518.27 Q302.002 1513.66 307.812 1513.66 Z" fill="#000000" fill-rule="nonzero" fill-opacity="1" /><path clip-path="url(#clip030)" d="M337.974 1517.37 Q334.363 1517.37 332.534 1520.93 Q330.729 1524.47 330.729 1531.6 Q330.729 1538.71 332.534 1542.27 Q334.363 1545.82 337.974 1545.82 Q341.608 1545.82 343.414 1542.27 Q345.243 1538.71 345.243 1531.6 Q345.243 1524.47 343.414 1520.93 Q341.608 1517.37 337.974 1517.37 M337.974 1513.66 Q343.784 1513.66 346.84 1518.27 Q349.918 1522.85 349.918 1531.6 Q349.918 1540.33 346.84 1544.94 Q343.784 1549.52 337.974 1549.52 Q332.164 1549.52 329.085 1544.94 Q326.03 1540.33 326.03 1531.6 Q326.03 1522.85 329.085 1518.27 Q332.164 1513.66 337.974 1513.66 Z" fill="#000000" fill-rule="nonzero" fill-opacity="1" /><path clip-path="url(#clip030)" d="M669.815 1517.37 Q666.204 1517.37 664.376 1520.93 Q662.57 1524.47 662.57 1531.6 Q662.57 1538.71 664.376 1542.27 Q666.204 1545.82 669.815 1545.82 Q673.45 1545.82 675.255 1542.27 Q677.084 1538.71 677.084 1531.6 Q677.084 1524.47 675.255 1520.93 Q673.45 1517.37 669.815 1517.37 M669.815 1513.66 Q675.625 1513.66 678.681 1518.27 Q681.76 1522.85 681.76 1531.6 Q681.76 1540.33 678.681 1544.94 Q675.625 1549.52 669.815 1549.52 Q664.005 1549.52 660.926 1544.94 Q657.871 1540.33 657.871 1531.6 Q657.871 1522.85 660.926 1518.27 Q664.005 1513.66 669.815 1513.66 Z" fill="#000000" fill-rule="nonzero" fill-opacity="1" /><path clip-path="url(#clip030)" d="M689.977 1542.97 L694.861 1542.97 L694.861 1548.85 L689.977 1548.85 L689.977 1542.97 Z" fill="#000000" fill-rule="nonzero" fill-opacity="1" /><path clip-path="url(#clip030)" d="M715.047 1517.37 Q711.435 1517.37 709.607 1520.93 Q707.801 1524.47 707.801 1531.6 Q707.801 1538.71 709.607 1542.27 Q711.435 1545.82 715.047 1545.82 Q718.681 1545.82 720.486 1542.27 Q722.315 1538.71 722.315 1531.6 Q722.315 1524.47 720.486 1520.93 Q718.681 1517.37 715.047 1517.37 M715.047 1513.66 Q720.857 1513.66 723.912 1518.27 Q726.991 1522.85 726.991 1531.6 Q726.991 1540.33 723.912 1544.94 Q720.857 1549.52 715.047 1549.52 Q709.236 1549.52 706.158 1544.94 Q703.102 1540.33 703.102 1531.6 Q703.102 1522.85 706.158 1518.27 Q709.236 1513.66 715.047 1513.66 Z" fill="#000000" fill-rule="nonzero" fill-opacity="1" /><path clip-path="url(#clip030)" d="M745.208 1517.37 Q741.597 1517.37 739.769 1520.93 Q737.963 1524.47 737.963 1531.6 Q737.963 1538.71 739.769 1542.27 Q741.597 1545.82 745.208 1545.82 Q748.843 1545.82 750.648 1542.27 Q752.477 1538.71 752.477 1531.6 Q752.477 1524.47 750.648 1520.93 Q748.843 1517.37 745.208 1517.37 M745.208 1513.66 Q751.019 1513.66 754.074 1518.27 Q757.153 1522.85 757.153 1531.6 Q757.153 1540.33 754.074 1544.94 Q751.019 1549.52 745.208 1549.52 Q739.398 1549.52 736.32 1544.94 Q733.264 1540.33 733.264 1531.6 Q733.264 1522.85 736.32 1518.27 Q739.398 1513.66 745.208 1513.66 Z" fill="#000000" fill-rule="nonzero" fill-opacity="1" /><path clip-path="url(#clip030)" d="M775.37 1517.37 Q771.759 1517.37 769.93 1520.93 Q768.125 1524.47 768.125 1531.6 Q768.125 1538.71 769.93 1542.27 Q771.759 1545.82 775.37 1545.82 Q779.005 1545.82 780.81 1542.27 Q782.639 1538.71 782.639 1531.6 Q782.639 1524.47 780.81 1520.93 Q779.005 1517.37 775.37 1517.37 M775.37 1513.66 Q781.18 1513.66 784.236 1518.27 Q787.315 1522.85 787.315 1531.6 Q787.315 1540.33 784.236 1544.94 Q781.18 1549.52 775.37 1549.52 Q769.56 1549.52 766.481 1544.94 Q763.426 1540.33 763.426 1531.6 Q763.426 1522.85 766.481 1518.27 Q769.56 1513.66 775.37 1513.66 Z" fill="#000000" fill-rule="nonzero" fill-opacity="1" /><path clip-path="url(#clip030)" d="M799.56 1544.91 L815.879 1544.91 L815.879 1548.85 L793.935 1548.85 L793.935 1544.91 Q796.597 1542.16 801.18 1537.53 Q805.787 1532.88 806.967 1531.53 Q809.213 1529.01 810.092 1527.27 Q810.995 1525.51 810.995 1523.82 Q810.995 1521.07 809.051 1519.33 Q807.129 1517.6 804.028 1517.6 Q801.828 1517.6 799.375 1518.36 Q796.944 1519.13 794.166 1520.68 L794.166 1515.95 Q796.991 1514.82 799.444 1514.24 Q801.898 1513.66 803.935 1513.66 Q809.305 1513.66 812.5 1516.35 Q815.694 1519.03 815.694 1523.52 Q815.694 1525.65 814.884 1527.57 Q814.097 1529.47 811.99 1532.07 Q811.412 1532.74 808.31 1535.95 Q805.208 1539.15 799.56 1544.91 Z" fill="#000000" fill-rule="nonzero" fill-opacity="1" /><path clip-path="url(#clip030)" d="M825.74 1514.29 L844.097 1514.29 L844.097 1518.22 L830.023 1518.22 L830.023 1526.7 Q831.041 1526.35 832.06 1526.19 Q833.078 1526 834.097 1526 Q839.884 1526 843.263 1529.17 Q846.643 1532.34 846.643 1537.76 Q846.643 1543.34 843.171 1546.44 Q839.699 1549.52 833.379 1549.52 Q831.203 1549.52 828.935 1549.15 Q826.689 1548.78 824.282 1548.04 L824.282 1543.34 Q826.365 1544.47 828.588 1545.03 Q830.81 1545.58 833.287 1545.58 Q837.291 1545.58 839.629 1543.48 Q841.967 1541.37 841.967 1537.76 Q841.967 1534.15 839.629 1532.04 Q837.291 1529.94 833.287 1529.94 Q831.412 1529.94 829.537 1530.35 Q827.685 1530.77 825.74 1531.65 L825.74 1514.29 Z" fill="#000000" fill-rule="nonzero" fill-opacity="1" /><path clip-path="url(#clip030)" d="M1166.54 1517.37 Q1162.93 1517.37 1161.1 1520.93 Q1159.29 1524.47 1159.29 1531.6 Q1159.29 1538.71 1161.1 1542.27 Q1162.93 1545.82 1166.54 1545.82 Q1170.17 1545.82 1171.98 1542.27 Q1173.81 1538.71 1173.81 1531.6 Q1173.81 1524.47 1171.98 1520.93 Q1170.17 1517.37 1166.54 1517.37 M1166.54 1513.66 Q1172.35 1513.66 1175.41 1518.27 Q1178.48 1522.85 1178.48 1531.6 Q1178.48 1540.33 1175.41 1544.94 Q1172.35 1549.52 1166.54 1549.52 Q1160.73 1549.52 1157.65 1544.94 Q1154.6 1540.33 1154.6 1531.6 Q1154.6 1522.85 1157.65 1518.27 Q1160.73 1513.66 1166.54 1513.66 Z" fill="#000000" fill-rule="nonzero" fill-opacity="1" /><path clip-path="url(#clip030)" d="M1186.7 1542.97 L1191.59 1542.97 L1191.59 1548.85 L1186.7 1548.85 L1186.7 1542.97 Z" fill="#000000" fill-rule="nonzero" fill-opacity="1" /><path clip-path="url(#clip030)" d="M1211.77 1517.37 Q1208.16 1517.37 1206.33 1520.93 Q1204.53 1524.47 1204.53 1531.6 Q1204.53 1538.71 1206.33 1542.27 Q1208.16 1545.82 1211.77 1545.82 Q1215.41 1545.82 1217.21 1542.27 Q1219.04 1538.71 1219.04 1531.6 Q1219.04 1524.47 1217.21 1520.93 Q1215.41 1517.37 1211.77 1517.37 M1211.77 1513.66 Q1217.58 1513.66 1220.64 1518.27 Q1223.72 1522.85 1223.72 1531.6 Q1223.72 1540.33 1220.64 1544.94 Q1217.58 1549.52 1211.77 1549.52 Q1205.96 1549.52 1202.88 1544.94 Q1199.83 1540.33 1199.83 1531.6 Q1199.83 1522.85 1202.88 1518.27 Q1205.96 1513.66 1211.77 1513.66 Z" fill="#000000" fill-rule="nonzero" fill-opacity="1" /><path clip-path="url(#clip030)" d="M1241.93 1517.37 Q1238.32 1517.37 1236.49 1520.93 Q1234.69 1524.47 1234.69 1531.6 Q1234.69 1538.71 1236.49 1542.27 Q1238.32 1545.82 1241.93 1545.82 Q1245.57 1545.82 1247.37 1542.27 Q1249.2 1538.71 1249.2 1531.6 Q1249.2 1524.47 1247.37 1520.93 Q1245.57 1517.37 1241.93 1517.37 M1241.93 1513.66 Q1247.74 1513.66 1250.8 1518.27 Q1253.88 1522.85 1253.88 1531.6 Q1253.88 1540.33 1250.8 1544.94 Q1247.74 1549.52 1241.93 1549.52 Q1236.12 1549.52 1233.04 1544.94 Q1229.99 1540.33 1229.99 1531.6 Q1229.99 1522.85 1233.04 1518.27 Q1236.12 1513.66 1241.93 1513.66 Z" fill="#000000" fill-rule="nonzero" fill-opacity="1" /><path clip-path="url(#clip030)" d="M1272.09 1517.37 Q1268.48 1517.37 1266.66 1520.93 Q1264.85 1524.47 1264.85 1531.6 Q1264.85 1538.71 1266.66 1542.27 Q1268.48 1545.82 1272.09 1545.82 Q1275.73 1545.82 1277.53 1542.27 Q1279.36 1538.71 1279.36 1531.6 Q1279.36 1524.47 1277.53 1520.93 Q1275.73 1517.37 1272.09 1517.37 M1272.09 1513.66 Q1277.91 1513.66 1280.96 1518.27 Q1284.04 1522.85 1284.04 1531.6 Q1284.04 1540.33 1280.96 1544.94 Q1277.91 1549.52 1272.09 1549.52 Q1266.28 1549.52 1263.21 1544.94 Q1260.15 1540.33 1260.15 1531.6 Q1260.15 1522.85 1263.21 1518.27 Q1266.28 1513.66 1272.09 1513.66 Z" fill="#000000" fill-rule="nonzero" fill-opacity="1" /><path clip-path="url(#clip030)" d="M1292.3 1514.29 L1310.66 1514.29 L1310.66 1518.22 L1296.59 1518.22 L1296.59 1526.7 Q1297.6 1526.35 1298.62 1526.19 Q1299.64 1526 1300.66 1526 Q1306.45 1526 1309.83 1529.17 Q1313.21 1532.34 1313.21 1537.76 Q1313.21 1543.34 1309.73 1546.44 Q1306.26 1549.52 1299.94 1549.52 Q1297.77 1549.52 1295.5 1549.15 Q1293.25 1548.78 1290.84 1548.04 L1290.84 1543.34 Q1292.93 1544.47 1295.15 1545.03 Q1297.37 1545.58 1299.85 1545.58 Q1303.85 1545.58 1306.19 1543.48 Q1308.53 1541.37 1308.53 1537.76 Q1308.53 1534.15 1306.19 1532.04 Q1303.85 1529.94 1299.85 1529.94 Q1297.97 1529.94 1296.1 1530.35 Q1294.25 1530.77 1292.3 1531.65 L1292.3 1514.29 Z" fill="#000000" fill-rule="nonzero" fill-opacity="1" /><path clip-path="url(#clip030)" d="M1332.42 1517.37 Q1328.81 1517.37 1326.98 1520.93 Q1325.17 1524.47 1325.17 1531.6 Q1325.17 1538.71 1326.98 1542.27 Q1328.81 1545.82 1332.42 1545.82 Q1336.05 1545.82 1337.86 1542.27 Q1339.69 1538.71 1339.69 1531.6 Q1339.69 1524.47 1337.86 1520.93 Q1336.05 1517.37 1332.42 1517.37 M1332.42 1513.66 Q1338.23 1513.66 1341.28 1518.27 Q1344.36 1522.85 1344.36 1531.6 Q1344.36 1540.33 1341.28 1544.94 Q1338.23 1549.52 1332.42 1549.52 Q1326.61 1549.52 1323.53 1544.94 Q1320.47 1540.33 1320.47 1531.6 Q1320.47 1522.85 1323.53 1518.27 Q1326.61 1513.66 1332.42 1513.66 Z" fill="#000000" fill-rule="nonzero" fill-opacity="1" /><path clip-path="url(#clip030)" d="M1664.26 1517.37 Q1660.65 1517.37 1658.82 1520.93 Q1657.01 1524.47 1657.01 1531.6 Q1657.01 1538.71 1658.82 1542.27 Q1660.65 1545.82 1664.26 1545.82 Q1667.89 1545.82 1669.7 1542.27 Q1671.53 1538.71 1671.53 1531.6 Q1671.53 1524.47 1669.7 1520.93 Q1667.89 1517.37 1664.26 1517.37 M1664.26 1513.66 Q1670.07 1513.66 1673.13 1518.27 Q1676.2 1522.85 1676.2 1531.6 Q1676.2 1540.33 1673.13 1544.94 Q1670.07 1549.52 1664.26 1549.52 Q1658.45 1549.52 1655.37 1544.94 Q1652.32 1540.33 1652.32 1531.6 Q1652.32 1522.85 1655.37 1518.27 Q1658.45 1513.66 1664.26 1513.66 Z" fill="#000000" fill-rule="nonzero" fill-opacity="1" /><path clip-path="url(#clip030)" d="M1684.42 1542.97 L1689.31 1542.97 L1689.31 1548.85 L1684.42 1548.85 L1684.42 1542.97 Z" fill="#000000" fill-rule="nonzero" fill-opacity="1" /><path clip-path="url(#clip030)" d="M1709.49 1517.37 Q1705.88 1517.37 1704.05 1520.93 Q1702.25 1524.47 1702.25 1531.6 Q1702.25 1538.71 1704.05 1542.27 Q1705.88 1545.82 1709.49 1545.82 Q1713.13 1545.82 1714.93 1542.27 Q1716.76 1538.71 1716.76 1531.6 Q1716.76 1524.47 1714.93 1520.93 Q1713.13 1517.37 1709.49 1517.37 M1709.49 1513.66 Q1715.3 1513.66 1718.36 1518.27 Q1721.44 1522.85 1721.44 1531.6 Q1721.44 1540.33 1718.36 1544.94 Q1715.3 1549.52 1709.49 1549.52 Q1703.68 1549.52 1700.6 1544.94 Q1697.55 1540.33 1697.55 1531.6 Q1697.55 1522.85 1700.6 1518.27 Q1703.68 1513.66 1709.49 1513.66 Z" fill="#000000" fill-rule="nonzero" fill-opacity="1" /><path clip-path="url(#clip030)" d="M1739.65 1517.37 Q1736.04 1517.37 1734.21 1520.93 Q1732.41 1524.47 1732.41 1531.6 Q1732.41 1538.71 1734.21 1542.27 Q1736.04 1545.82 1739.65 1545.82 Q1743.29 1545.82 1745.09 1542.27 Q1746.92 1538.71 1746.92 1531.6 Q1746.92 1524.47 1745.09 1520.93 Q1743.29 1517.37 1739.65 1517.37 M1739.65 1513.66 Q1745.46 1513.66 1748.52 1518.27 Q1751.6 1522.85 1751.6 1531.6 Q1751.6 1540.33 1748.52 1544.94 Q1745.46 1549.52 1739.65 1549.52 Q1733.84 1549.52 1730.76 1544.94 Q1727.71 1540.33 1727.71 1531.6 Q1727.71 1522.85 1730.76 1518.27 Q1733.84 1513.66 1739.65 1513.66 Z" fill="#000000" fill-rule="nonzero" fill-opacity="1" /><path clip-path="url(#clip030)" d="M1769.81 1517.37 Q1766.2 1517.37 1764.38 1520.93 Q1762.57 1524.47 1762.57 1531.6 Q1762.57 1538.71 1764.38 1542.27 Q1766.2 1545.82 1769.81 1545.82 Q1773.45 1545.82 1775.25 1542.27 Q1777.08 1538.71 1777.08 1531.6 Q1777.08 1524.47 1775.25 1520.93 Q1773.45 1517.37 1769.81 1517.37 M1769.81 1513.66 Q1775.63 1513.66 1778.68 1518.27 Q1781.76 1522.85 1781.76 1531.6 Q1781.76 1540.33 1778.68 1544.94 Q1775.63 1549.52 1769.81 1549.52 Q1764 1549.52 1760.93 1544.94 Q1757.87 1540.33 1757.87 1531.6 Q1757.87 1522.85 1760.93 1518.27 Q1764 1513.66 1769.81 1513.66 Z" fill="#000000" fill-rule="nonzero" fill-opacity="1" /><path clip-path="url(#clip030)" d="M1788.8 1514.29 L1811.02 1514.29 L1811.02 1516.28 L1798.47 1548.85 L1793.59 1548.85 L1805.39 1518.22 L1788.8 1518.22 L1788.8 1514.29 Z" fill="#000000" fill-rule="nonzero" fill-opacity="1" /><path clip-path="url(#clip030)" d="M1820.18 1514.29 L1838.54 1514.29 L1838.54 1518.22 L1824.47 1518.22 L1824.47 1526.7 Q1825.49 1526.35 1826.5 1526.19 Q1827.52 1526 1828.54 1526 Q1834.33 1526 1837.71 1529.17 Q1841.09 1532.34 1841.09 1537.76 Q1841.09 1543.34 1837.62 1546.44 Q1834.14 1549.52 1827.82 1549.52 Q1825.65 1549.52 1823.38 1549.15 Q1821.13 1548.78 1818.73 1548.04 L1818.73 1543.34 Q1820.81 1544.47 1823.03 1545.03 Q1825.25 1545.58 1827.73 1545.58 Q1831.74 1545.58 1834.07 1543.48 Q1836.41 1541.37 1836.41 1537.76 Q1836.41 1534.15 1834.07 1532.04 Q1831.74 1529.94 1827.73 1529.94 Q1825.86 1529.94 1823.98 1530.35 Q1822.13 1530.77 1820.18 1531.65 L1820.18 1514.29 Z" fill="#000000" fill-rule="nonzero" fill-opacity="1" /><path clip-path="url(#clip030)" d="M2160.98 1517.37 Q2157.37 1517.37 2155.54 1520.93 Q2153.74 1524.47 2153.74 1531.6 Q2153.74 1538.71 2155.54 1542.27 Q2157.37 1545.82 2160.98 1545.82 Q2164.62 1545.82 2166.42 1542.27 Q2168.25 1538.71 2168.25 1531.6 Q2168.25 1524.47 2166.42 1520.93 Q2164.62 1517.37 2160.98 1517.37 M2160.98 1513.66 Q2166.79 1513.66 2169.85 1518.27 Q2172.93 1522.85 2172.93 1531.6 Q2172.93 1540.33 2169.85 1544.94 Q2166.79 1549.52 2160.98 1549.52 Q2155.17 1549.52 2152.1 1544.94 Q2149.04 1540.33 2149.04 1531.6 Q2149.04 1522.85 2152.1 1518.27 Q2155.17 1513.66 2160.98 1513.66 Z" fill="#000000" fill-rule="nonzero" fill-opacity="1" /><path clip-path="url(#clip030)" d="M2181.15 1542.97 L2186.03 1542.97 L2186.03 1548.85 L2181.15 1548.85 L2181.15 1542.97 Z" fill="#000000" fill-rule="nonzero" fill-opacity="1" /><path clip-path="url(#clip030)" d="M2206.22 1517.37 Q2202.6 1517.37 2200.78 1520.93 Q2198.97 1524.47 2198.97 1531.6 Q2198.97 1538.71 2200.78 1542.27 Q2202.6 1545.82 2206.22 1545.82 Q2209.85 1545.82 2211.66 1542.27 Q2213.48 1538.71 2213.48 1531.6 Q2213.48 1524.47 2211.66 1520.93 Q2209.85 1517.37 2206.22 1517.37 M2206.22 1513.66 Q2212.03 1513.66 2215.08 1518.27 Q2218.16 1522.85 2218.16 1531.6 Q2218.16 1540.33 2215.08 1544.94 Q2212.03 1549.52 2206.22 1549.52 Q2200.41 1549.52 2197.33 1544.94 Q2194.27 1540.33 2194.27 1531.6 Q2194.27 1522.85 2197.33 1518.27 Q2200.41 1513.66 2206.22 1513.66 Z" fill="#000000" fill-rule="nonzero" fill-opacity="1" /><path clip-path="url(#clip030)" d="M2236.38 1517.37 Q2232.77 1517.37 2230.94 1520.93 Q2229.13 1524.47 2229.13 1531.6 Q2229.13 1538.71 2230.94 1542.27 Q2232.77 1545.82 2236.38 1545.82 Q2240.01 1545.82 2241.82 1542.27 Q2243.65 1538.71 2243.65 1531.6 Q2243.65 1524.47 2241.82 1520.93 Q2240.01 1517.37 2236.38 1517.37 M2236.38 1513.66 Q2242.19 1513.66 2245.24 1518.27 Q2248.32 1522.85 2248.32 1531.6 Q2248.32 1540.33 2245.24 1544.94 Q2242.19 1549.52 2236.38 1549.52 Q2230.57 1549.52 2227.49 1544.94 Q2224.43 1540.33 2224.43 1531.6 Q2224.43 1522.85 2227.49 1518.27 Q2230.57 1513.66 2236.38 1513.66 Z" fill="#000000" fill-rule="nonzero" fill-opacity="1" /><path clip-path="url(#clip030)" d="M2257.35 1544.91 L2264.99 1544.91 L2264.99 1518.55 L2256.68 1520.21 L2256.68 1515.95 L2264.94 1514.29 L2269.62 1514.29 L2269.62 1544.91 L2277.26 1544.91 L2277.26 1548.85 L2257.35 1548.85 L2257.35 1544.91 Z" fill="#000000" fill-rule="nonzero" fill-opacity="1" /><path clip-path="url(#clip030)" d="M2296.7 1517.37 Q2293.09 1517.37 2291.26 1520.93 Q2289.46 1524.47 2289.46 1531.6 Q2289.46 1538.71 2291.26 1542.27 Q2293.09 1545.82 2296.7 1545.82 Q2300.34 1545.82 2302.14 1542.27 Q2303.97 1538.71 2303.97 1531.6 Q2303.97 1524.47 2302.14 1520.93 Q2300.34 1517.37 2296.7 1517.37 M2296.7 1513.66 Q2302.51 1513.66 2305.57 1518.27 Q2308.65 1522.85 2308.65 1531.6 Q2308.65 1540.33 2305.57 1544.94 Q2302.51 1549.52 2296.7 1549.52 Q2290.89 1549.52 2287.81 1544.94 Q2284.76 1540.33 2284.76 1531.6 Q2284.76 1522.85 2287.81 1518.27 Q2290.89 1513.66 2296.7 1513.66 Z" fill="#000000" fill-rule="nonzero" fill-opacity="1" /><path clip-path="url(#clip030)" d="M2326.86 1517.37 Q2323.25 1517.37 2321.42 1520.93 Q2319.62 1524.47 2319.62 1531.6 Q2319.62 1538.71 2321.42 1542.27 Q2323.25 1545.82 2326.86 1545.82 Q2330.5 1545.82 2332.3 1542.27 Q2334.13 1538.71 2334.13 1531.6 Q2334.13 1524.47 2332.3 1520.93 Q2330.5 1517.37 2326.86 1517.37 M2326.86 1513.66 Q2332.67 1513.66 2335.73 1518.27 Q2338.81 1522.85 2338.81 1531.6 Q2338.81 1540.33 2335.73 1544.94 Q2332.67 1549.52 2326.86 1549.52 Q2321.05 1549.52 2317.97 1544.94 Q2314.92 1540.33 2314.92 1531.6 Q2314.92 1522.85 2317.97 1518.27 Q2321.05 1513.66 2326.86 1513.66 Z" fill="#000000" fill-rule="nonzero" fill-opacity="1" /><polyline clip-path="url(#clip030)" style="stroke:#000000; stroke-linecap:round; stroke-linejoin:round; stroke-width:4; stroke-opacity:1; fill:none" points="193.936,1486.45 193.936,47.2441 "/>
<polyline clip-path="url(#clip030)" style="stroke:#000000; stroke-linecap:round; stroke-linejoin:round; stroke-width:4; stroke-opacity:1; fill:none" points="193.936,1445.92 212.834,1445.92 "/>
<polyline clip-path="url(#clip030)" style="stroke:#000000; stroke-linecap:round; stroke-linejoin:round; stroke-width:4; stroke-opacity:1; fill:none" points="193.936,1106.43 212.834,1106.43 "/>
<polyline clip-path="url(#clip030)" style="stroke:#000000; stroke-linecap:round; stroke-linejoin:round; stroke-width:4; stroke-opacity:1; fill:none" points="193.936,766.948 212.834,766.948 "/>
<polyline clip-path="url(#clip030)" style="stroke:#000000; stroke-linecap:round; stroke-linejoin:round; stroke-width:4; stroke-opacity:1; fill:none" points="193.936,427.462 212.834,427.462 "/>
<polyline clip-path="url(#clip030)" style="stroke:#000000; stroke-linecap:round; stroke-linejoin:round; stroke-width:4; stroke-opacity:1; fill:none" points="193.936,87.9763 212.834,87.9763 "/>
<path clip-path="url(#clip030)" d="M50.9921 1446.37 L80.6679 1446.37 L80.6679 1450.31 L50.9921 1450.31 L50.9921 1446.37 Z" fill="#000000" fill-rule="nonzero" fill-opacity="1" /><path clip-path="url(#clip030)" d="M91.5706 1459.27 L99.2095 1459.27 L99.2095 1432.9 L90.8993 1434.57 L90.8993 1430.31 L99.1632 1428.64 L103.839 1428.64 L103.839 1459.27 L111.478 1459.27 L111.478 1463.2 L91.5706 1463.2 L91.5706 1459.27 Z" fill="#000000" fill-rule="nonzero" fill-opacity="1" /><path clip-path="url(#clip030)" d="M120.922 1457.32 L125.807 1457.32 L125.807 1463.2 L120.922 1463.2 L120.922 1457.32 Z" fill="#000000" fill-rule="nonzero" fill-opacity="1" /><path clip-path="url(#clip030)" d="M145.992 1431.72 Q142.381 1431.72 140.552 1435.28 Q138.746 1438.83 138.746 1445.95 Q138.746 1453.06 140.552 1456.63 Q142.381 1460.17 145.992 1460.17 Q149.626 1460.17 151.431 1456.63 Q153.26 1453.06 153.26 1445.95 Q153.26 1438.83 151.431 1435.28 Q149.626 1431.72 145.992 1431.72 M145.992 1428.02 Q151.802 1428.02 154.857 1432.62 Q157.936 1437.2 157.936 1445.95 Q157.936 1454.68 154.857 1459.29 Q151.802 1463.87 145.992 1463.87 Q140.181 1463.87 137.103 1459.29 Q134.047 1454.68 134.047 1445.95 Q134.047 1437.2 137.103 1432.62 Q140.181 1428.02 145.992 1428.02 Z" fill="#000000" fill-rule="nonzero" fill-opacity="1" /><path clip-path="url(#clip030)" d="M51.9875 1106.89 L81.6633 1106.89 L81.6633 1110.82 L51.9875 1110.82 L51.9875 1106.89 Z" fill="#000000" fill-rule="nonzero" fill-opacity="1" /><path clip-path="url(#clip030)" d="M101.756 1092.23 Q98.1447 1092.23 96.316 1095.8 Q94.5104 1099.34 94.5104 1106.47 Q94.5104 1113.58 96.316 1117.14 Q98.1447 1120.68 101.756 1120.68 Q105.39 1120.68 107.196 1117.14 Q109.024 1113.58 109.024 1106.47 Q109.024 1099.34 107.196 1095.8 Q105.39 1092.23 101.756 1092.23 M101.756 1088.53 Q107.566 1088.53 110.621 1093.14 Q113.7 1097.72 113.7 1106.47 Q113.7 1115.2 110.621 1119.8 Q107.566 1124.39 101.756 1124.39 Q95.9456 1124.39 92.8669 1119.8 Q89.8114 1115.2 89.8114 1106.47 Q89.8114 1097.72 92.8669 1093.14 Q95.9456 1088.53 101.756 1088.53 Z" fill="#000000" fill-rule="nonzero" fill-opacity="1" /><path clip-path="url(#clip030)" d="M121.918 1117.83 L126.802 1117.83 L126.802 1123.71 L121.918 1123.71 L121.918 1117.83 Z" fill="#000000" fill-rule="nonzero" fill-opacity="1" /><path clip-path="url(#clip030)" d="M137.033 1089.15 L155.39 1089.15 L155.39 1093.09 L141.316 1093.09 L141.316 1101.56 Q142.334 1101.21 143.353 1101.05 Q144.371 1100.87 145.39 1100.87 Q151.177 1100.87 154.556 1104.04 Q157.936 1107.21 157.936 1112.63 Q157.936 1118.2 154.464 1121.31 Q150.992 1124.39 144.672 1124.39 Q142.496 1124.39 140.228 1124.02 Q137.982 1123.64 135.575 1122.9 L135.575 1118.2 Q137.658 1119.34 139.881 1119.89 Q142.103 1120.45 144.58 1120.45 Q148.584 1120.45 150.922 1118.34 Q153.26 1116.24 153.26 1112.63 Q153.26 1109.02 150.922 1106.91 Q148.584 1104.8 144.58 1104.8 Q142.705 1104.8 140.83 1105.22 Q138.978 1105.64 137.033 1106.52 L137.033 1089.15 Z" fill="#000000" fill-rule="nonzero" fill-opacity="1" /><path clip-path="url(#clip030)" d="M100.76 752.747 Q97.1493 752.747 95.3206 756.312 Q93.515 759.853 93.515 766.983 Q93.515 774.089 95.3206 777.654 Q97.1493 781.196 100.76 781.196 Q104.395 781.196 106.2 777.654 Q108.029 774.089 108.029 766.983 Q108.029 759.853 106.2 756.312 Q104.395 752.747 100.76 752.747 M100.76 749.043 Q106.571 749.043 109.626 753.65 Q112.705 758.233 112.705 766.983 Q112.705 775.71 109.626 780.316 Q106.571 784.9 100.76 784.9 Q94.9502 784.9 91.8715 780.316 Q88.816 775.71 88.816 766.983 Q88.816 758.233 91.8715 753.65 Q94.9502 749.043 100.76 749.043 Z" fill="#000000" fill-rule="nonzero" fill-opacity="1" /><path clip-path="url(#clip030)" d="M120.922 778.349 L125.807 778.349 L125.807 784.228 L120.922 784.228 L120.922 778.349 Z" fill="#000000" fill-rule="nonzero" fill-opacity="1" /><path clip-path="url(#clip030)" d="M145.992 752.747 Q142.381 752.747 140.552 756.312 Q138.746 759.853 138.746 766.983 Q138.746 774.089 140.552 777.654 Q142.381 781.196 145.992 781.196 Q149.626 781.196 151.431 777.654 Q153.26 774.089 153.26 766.983 Q153.26 759.853 151.431 756.312 Q149.626 752.747 145.992 752.747 M145.992 749.043 Q151.802 749.043 154.857 753.65 Q157.936 758.233 157.936 766.983 Q157.936 775.71 154.857 780.316 Q151.802 784.9 145.992 784.9 Q140.181 784.9 137.103 780.316 Q134.047 775.71 134.047 766.983 Q134.047 758.233 137.103 753.65 Q140.181 749.043 145.992 749.043 Z" fill="#000000" fill-rule="nonzero" fill-opacity="1" /><path clip-path="url(#clip030)" d="M101.756 413.261 Q98.1447 413.261 96.316 416.826 Q94.5104 420.367 94.5104 427.497 Q94.5104 434.603 96.316 438.168 Q98.1447 441.71 101.756 441.71 Q105.39 441.71 107.196 438.168 Q109.024 434.603 109.024 427.497 Q109.024 420.367 107.196 416.826 Q105.39 413.261 101.756 413.261 M101.756 409.557 Q107.566 409.557 110.621 414.164 Q113.7 418.747 113.7 427.497 Q113.7 436.224 110.621 440.83 Q107.566 445.414 101.756 445.414 Q95.9456 445.414 92.8669 440.83 Q89.8114 436.224 89.8114 427.497 Q89.8114 418.747 92.8669 414.164 Q95.9456 409.557 101.756 409.557 Z" fill="#000000" fill-rule="nonzero" fill-opacity="1" /><path clip-path="url(#clip030)" d="M121.918 438.863 L126.802 438.863 L126.802 444.742 L121.918 444.742 L121.918 438.863 Z" fill="#000000" fill-rule="nonzero" fill-opacity="1" /><path clip-path="url(#clip030)" d="M137.033 410.182 L155.39 410.182 L155.39 414.117 L141.316 414.117 L141.316 422.59 Q142.334 422.242 143.353 422.08 Q144.371 421.895 145.39 421.895 Q151.177 421.895 154.556 425.066 Q157.936 428.238 157.936 433.654 Q157.936 439.233 154.464 442.335 Q150.992 445.414 144.672 445.414 Q142.496 445.414 140.228 445.043 Q137.982 444.673 135.575 443.932 L135.575 439.233 Q137.658 440.367 139.881 440.923 Q142.103 441.478 144.58 441.478 Q148.584 441.478 150.922 439.372 Q153.26 437.265 153.26 433.654 Q153.26 430.043 150.922 427.937 Q148.584 425.83 144.58 425.83 Q142.705 425.83 140.83 426.247 Q138.978 426.664 137.033 427.543 L137.033 410.182 Z" fill="#000000" fill-rule="nonzero" fill-opacity="1" /><path clip-path="url(#clip030)" d="M91.5706 101.321 L99.2095 101.321 L99.2095 74.9555 L90.8993 76.6222 L90.8993 72.3629 L99.1632 70.6963 L103.839 70.6963 L103.839 101.321 L111.478 101.321 L111.478 105.256 L91.5706 105.256 L91.5706 101.321 Z" fill="#000000" fill-rule="nonzero" fill-opacity="1" /><path clip-path="url(#clip030)" d="M120.922 99.3767 L125.807 99.3767 L125.807 105.256 L120.922 105.256 L120.922 99.3767 Z" fill="#000000" fill-rule="nonzero" fill-opacity="1" /><path clip-path="url(#clip030)" d="M145.992 73.775 Q142.381 73.775 140.552 77.3398 Q138.746 80.8814 138.746 88.011 Q138.746 95.1174 140.552 98.6822 Q142.381 102.224 145.992 102.224 Q149.626 102.224 151.431 98.6822 Q153.26 95.1174 153.26 88.011 Q153.26 80.8814 151.431 77.3398 Q149.626 73.775 145.992 73.775 M145.992 70.0713 Q151.802 70.0713 154.857 74.6777 Q157.936 79.261 157.936 88.011 Q157.936 96.7378 154.857 101.344 Q151.802 105.928 145.992 105.928 Q140.181 105.928 137.103 101.344 Q134.047 96.7378 134.047 88.011 Q134.047 79.261 137.103 74.6777 Q140.181 70.0713 145.992 70.0713 Z" fill="#000000" fill-rule="nonzero" fill-opacity="1" /><polyline clip-path="url(#clip032)" style="stroke:#009af9; stroke-linecap:round; stroke-linejoin:round; stroke-width:4; stroke-opacity:1; fill:none" points="255.035,87.9763 271.071,1445.72 287.107,91.2457 303.144,1429.42 319.18,139.66 335.217,1322.07 351.253,336.213 367.289,1011.31 383.326,766.948 399.362,491.801 415.399,1291.8 431.435,97.9723 447.471,1394.24 463.508,403.7 479.544,700.397 495.581,1258.69 511.617,87.9763 527.653,1235.13 543.69,833.499 559.726,193.316 575.763,1394.24 591.799,650.87 607.835,242.096 623.872,1387.67 639.908,766.948 655.945,133.472 671.981,1197.68 688.017,1157.91 704.054,139.66 720.09,618.185 736.127,1442.65 752.163,783.611 768.199,87.9763 784.236,750.285 800.272,1442.65 816.309,915.712 832.345,139.66 848.381,375.991 864.418,1197.68 880.454,1400.42 896.491,766.948 912.527,146.225 928.563,242.096 944.6,883.027 960.636,1394.24 976.673,1340.58 992.709,833.499 1008.75,298.77 1024.78,87.9763 1040.82,275.205 1056.85,700.397 1072.89,1130.2 1088.93,1394.24 1104.96,1435.92 1121,1291.8 1137.04,1042.1 1153.07,766.948 1169.11,522.59 1185.15,336.213 1201.18,211.831 1217.22,139.66 1233.25,104.474 1249.29,91.2457 1265.33,88.1808 1281.36,87.9763 1297.4,88.1808 1313.44,91.2457 1329.47,104.474 1345.51,139.66 1361.55,211.831 1377.58,336.213 1393.62,522.59 1409.66,766.948 1425.69,1042.1 1441.73,1291.8 1457.76,1435.92 1473.8,1394.24 1489.84,1130.2 1505.87,700.397 1521.91,275.205 1537.95,87.9763 1553.98,298.77 1570.02,833.499 1586.06,1340.58 1602.09,1394.24 1618.13,883.027 1634.16,242.096 1650.2,146.225 1666.24,766.948 1682.27,1400.42 1698.31,1197.68 1714.35,375.991 1730.38,139.66 1746.42,915.712 1762.46,1442.65 1778.49,750.285 1794.53,87.9763 1810.57,783.611 1826.6,1442.65 1842.64,618.185 1858.67,139.66 1874.71,1157.91 1890.75,1197.68 1906.78,133.472 1922.82,766.948 1938.86,1387.67 1954.89,242.096 1970.93,650.87 1986.97,1394.24 2003,193.316 2019.04,833.499 2035.07,1235.13 2051.11,87.9763 2067.15,1258.69 2083.18,700.397 2099.22,403.7 2115.26,1394.24 2131.29,97.9723 2147.33,1291.8 2163.37,491.801 2179.4,766.948 2195.44,1011.31 2211.48,336.213 2227.51,1322.07 2243.55,139.66 2259.58,1429.42 2275.62,91.2457 2291.66,1445.72 "/>
<polyline clip-path="url(#clip032)" style="stroke:#e26f46; stroke-linecap:round; stroke-linejoin:round; stroke-width:4; stroke-opacity:1; fill:none" points="255.035,766.948 271.071,783.611 287.107,700.397 303.144,915.712 319.18,507.117 335.217,1157.91 351.253,242.096 367.289,1400.42 383.326,87.9763 399.362,1387.67 415.399,336.213 431.435,883.027 447.471,1026.78 463.508,193.316 479.544,1442.65 495.581,298.77 511.617,766.948 527.653,1258.69 543.69,91.2457 559.726,1130.2 575.763,1026.78 591.799,97.9723 607.835,1197.68 623.872,1042.1 639.908,87.9763 655.945,1011.31 671.981,1291.8 688.017,211.831 704.054,507.117 720.09,1429.42 736.127,833.499 752.163,88.1808 768.199,766.948 784.236,1445.72 800.272,833.499 816.309,104.474 832.345,507.117 848.381,1322.07 864.418,1291.8 880.454,522.59 896.491,87.9763 912.527,491.801 928.563,1197.68 944.6,1435.92 960.636,1026.78 976.673,403.7 992.709,91.2457 1008.75,275.205 1024.78,766.948 1040.82,1235.13 1056.85,1442.65 1072.89,1340.58 1088.93,1026.78 1104.96,650.87 1121,336.213 1137.04,146.225 1153.07,87.9763 1169.11,133.472 1185.15,242.096 1201.18,375.991 1217.22,507.117 1233.25,618.185 1249.29,700.397 1265.33,750.285 1281.36,766.948 1297.4,750.285 1313.44,700.397 1329.47,618.185 1345.51,507.117 1361.55,375.991 1377.58,242.096 1393.62,133.472 1409.66,87.9763 1425.69,146.225 1441.73,336.213 1457.76,650.87 1473.8,1026.78 1489.84,1340.58 1505.87,1442.65 1521.91,1235.13 1537.95,766.948 1553.98,275.205 1570.02,91.2457 1586.06,403.7 1602.09,1026.78 1618.13,1435.92 1634.16,1197.68 1650.2,491.801 1666.24,87.9763 1682.27,522.59 1698.31,1291.8 1714.35,1322.07 1730.38,507.117 1746.42,104.474 1762.46,833.499 1778.49,1445.72 1794.53,766.948 1810.57,88.1808 1826.6,833.499 1842.64,1429.42 1858.67,507.117 1874.71,211.831 1890.75,1291.8 1906.78,1011.31 1922.82,87.9763 1938.86,1042.1 1954.89,1197.68 1970.93,97.9723 1986.97,1026.78 2003,1130.2 2019.04,91.2457 2035.07,1258.69 2051.11,766.948 2067.15,298.77 2083.18,1442.65 2099.22,193.316 2115.26,1026.78 2131.29,883.027 2147.33,336.213 2163.37,1387.67 2179.4,87.9763 2195.44,1400.42 2211.48,242.096 2227.51,1157.91 2243.55,507.117 2259.58,915.712 2275.62,700.397 2291.66,783.611 "/>
</svg>
