<?xml version="1.0" encoding="utf-8"?>
<svg xmlns="http://www.w3.org/2000/svg" xmlns:xlink="http://www.w3.org/1999/xlink" width="600" height="400" viewBox="0 0 2400 1600">
<defs>
  <clipPath id="clip530">
    <rect x="0" y="0" width="2400" height="1600"/>
  </clipPath>
</defs>
<path clip-path="url(#clip530)" d="M0 1600 L2400 1600 L2400 0 L0 0  Z" fill="#ffffff" fill-rule="evenodd" fill-opacity="1"/>
<defs>
  <clipPath id="clip531">
    <rect x="480" y="0" width="1681" height="1600"/>
  </clipPath>
</defs>
<path clip-path="url(#clip530)" d="M193.936 1486.45 L2352.76 1486.45 L2352.76 47.2441 L193.936 47.2441  Z" fill="#ffffff" fill-rule="evenodd" fill-opacity="1"/>
<defs>
  <clipPath id="clip532">
    <rect x="193" y="47" width="2160" height="1440"/>
  </clipPath>
</defs>
<polyline clip-path="url(#clip530)" style="stroke:#000000; stroke-linecap:round; stroke-linejoin:round; stroke-width:4; stroke-opacity:1; fill:none" points="193.936,1486.45 2352.76,1486.45 "/>
<polyline clip-path="url(#clip530)" style="stroke:#000000; stroke-linecap:round; stroke-linejoin:round; stroke-width:4; stroke-opacity:1; fill:none" points="255.035,1486.45 255.035,1467.55 "/>
<polyline clip-path="url(#clip530)" style="stroke:#000000; stroke-linecap:round; stroke-linejoin:round; stroke-width:4; stroke-opacity:1; fill:none" points="752.257,1486.45 752.257,1467.55 "/>
<polyline clip-path="url(#clip530)" style="stroke:#000000; stroke-linecap:round; stroke-linejoin:round; stroke-width:4; stroke-opacity:1; fill:none" points="1249.48,1486.45 1249.48,1467.55 "/>
<polyline clip-path="url(#clip530)" style="stroke:#000000; stroke-linecap:round; stroke-linejoin:round; stroke-width:4; stroke-opacity:1; fill:none" points="1746.7,1486.45 1746.7,1467.55 "/>
<polyline clip-path="url(#clip530)" style="stroke:#000000; stroke-linecap:round; stroke-linejoin:round; stroke-width:4; stroke-opacity:1; fill:none" points="2243.92,1486.45 2243.92,1467.55 "/>
<path clip-path="url(#clip530)" d="M172.095 1517.37 Q168.484 1517.37 166.656 1520.93 Q164.85 1524.47 164.85 1531.6 Q164.85 1538.71 166.656 1542.27 Q168.484 1545.82 172.095 1545.82 Q175.73 1545.82 177.535 1542.27 Q179.364 1538.71 179.364 1531.6 Q179.364 1524.47 177.535 1520.93 Q175.73 1517.37 172.095 1517.37 M172.095 1513.66 Q177.905 1513.66 180.961 1518.27 Q184.04 1522.85 184.04 1531.6 Q184.04 1540.33 180.961 1544.94 Q177.905 1549.52 172.095 1549.52 Q166.285 1549.52 163.206 1544.94 Q160.151 1540.33 160.151 1531.6 Q160.151 1522.85 163.206 1518.27 Q166.285 1513.66 172.095 1513.66 Z" fill="#000000" fill-rule="nonzero" fill-opacity="1" /><path clip-path="url(#clip530)" d="M192.257 1542.97 L197.141 1542.97 L197.141 1548.85 L192.257 1548.85 L192.257 1542.97 Z" fill="#000000" fill-rule="nonzero" fill-opacity="1" /><path clip-path="url(#clip530)" d="M217.327 1517.37 Q213.715 1517.37 211.887 1520.93 Q210.081 1524.47 210.081 1531.6 Q210.081 1538.71 211.887 1542.27 Q213.715 1545.82 217.327 1545.82 Q220.961 1545.82 222.766 1542.27 Q224.595 1538.71 224.595 1531.6 Q224.595 1524.47 222.766 1520.93 Q220.961 1517.37 217.327 1517.37 M217.327 1513.66 Q223.137 1513.66 226.192 1518.27 Q229.271 1522.85 229.271 1531.6 Q229.271 1540.33 226.192 1544.94 Q223.137 1549.52 217.327 1549.52 Q211.516 1549.52 208.438 1544.94 Q205.382 1540.33 205.382 1531.6 Q205.382 1522.85 208.438 1518.27 Q211.516 1513.66 217.327 1513.66 Z" fill="#000000" fill-rule="nonzero" fill-opacity="1" /><path clip-path="url(#clip530)" d="M247.488 1517.37 Q243.877 1517.37 242.049 1520.93 Q240.243 1524.47 240.243 1531.6 Q240.243 1538.71 242.049 1542.27 Q243.877 1545.82 247.488 1545.82 Q251.123 1545.82 252.928 1542.27 Q254.757 1538.71 254.757 1531.6 Q254.757 1524.47 252.928 1520.93 Q251.123 1517.37 247.488 1517.37 M247.488 1513.66 Q253.299 1513.66 256.354 1518.27 Q259.433 1522.85 259.433 1531.6 Q259.433 1540.33 256.354 1544.94 Q253.299 1549.52 247.488 1549.52 Q241.678 1549.52 238.6 1544.94 Q235.544 1540.33 235.544 1531.6 Q235.544 1522.85 238.6 1518.27 Q241.678 1513.66 247.488 1513.66 Z" fill="#000000" fill-rule="nonzero" fill-opacity="1" /><path clip-path="url(#clip530)" d="M277.65 1517.37 Q274.039 1517.37 272.211 1520.93 Q270.405 1524.47 270.405 1531.6 Q270.405 1538.71 272.211 1542.27 Q274.039 1545.82 277.65 1545.82 Q281.285 1545.82 283.09 1542.27 Q284.919 1538.71 284.919 1531.6 Q284.919 1524.47 283.09 1520.93 Q281.285 1517.37 277.65 1517.37 M277.65 1513.66 Q283.46 1513.66 286.516 1518.27 Q289.595 1522.85 289.595 1531.6 Q289.595 1540.33 286.516 1544.94 Q283.46 1549.52 277.65 1549.52 Q271.84 1549.52 268.761 1544.94 Q265.706 1540.33 265.706 1531.6 Q265.706 1522.85 268.761 1518.27 Q271.84 1513.66 277.65 1513.66 Z" fill="#000000" fill-rule="nonzero" fill-opacity="1" /><path clip-path="url(#clip530)" d="M307.812 1517.37 Q304.201 1517.37 302.372 1520.93 Q300.567 1524.47 300.567 1531.6 Q300.567 1538.71 302.372 1542.27 Q304.201 1545.82 307.812 1545.82 Q311.446 1545.82 313.252 1542.27 Q315.081 1538.71 315.081 1531.6 Q315.081 1524.47 313.252 1520.93 Q311.446 1517.37 307.812 1517.37 M307.812 1513.66 Q313.622 1513.66 316.678 1518.27 Q319.757 1522.85 319.757 1531.6 Q319.757 1540.33 316.678 1544.94 Q313.622 1549.52 307.812 1549.52 Q302.002 1549.52 298.923 1544.94 Q295.868 1540.33 295.868 1531.6 Q295.868 1522.85 298.923 1518.27 Q302.002 1513.66 307.812 1513.66 Z" fill="#000000" fill-rule="nonzero" fill-opacity="1" /><path clip-path="url(#clip530)" d="M337.974 1517.37 Q334.363 1517.37 332.534 1520.93 Q330.729 1524.47 330.729 1531.6 Q330.729 1538.71 332.534 1542.27 Q334.363 1545.82 337.974 1545.82 Q341.608 1545.82 343.414 1542.27 Q345.243 1538.71 345.243 1531.6 Q345.243 1524.47 343.414 1520.93 Q341.608 1517.37 337.974 1517.37 M337.974 1513.66 Q343.784 1513.66 346.84 1518.27 Q349.918 1522.85 349.918 1531.6 Q349.918 1540.33 346.84 1544.94 Q343.784 1549.52 337.974 1549.52 Q332.164 1549.52 329.085 1544.94 Q326.03 1540.33 326.03 1531.6 Q326.03 1522.85 329.085 1518.27 Q332.164 1513.66 337.974 1513.66 Z" fill="#000000" fill-rule="nonzero" fill-opacity="1" /><path clip-path="url(#clip530)" d="M669.815 1517.37 Q666.204 1517.37 664.376 1520.93 Q662.57 1524.47 662.57 1531.6 Q662.57 1538.71 664.376 1542.27 Q666.204 1545.82 669.815 1545.82 Q673.45 1545.82 675.255 1542.27 Q677.084 1538.71 677.084 1531.6 Q677.084 1524.47 675.255 1520.93 Q673.45 1517.37 669.815 1517.37 M669.815 1513.66 Q675.625 1513.66 678.681 1518.27 Q681.76 1522.85 681.76 1531.6 Q681.76 1540.33 678.681 1544.94 Q675.625 1549.52 669.815 1549.52 Q664.005 1549.52 660.926 1544.94 Q657.871 1540.33 657.871 1531.6 Q657.871 1522.85 660.926 1518.27 Q664.005 1513.66 669.815 1513.66 Z" fill="#000000" fill-rule="nonzero" fill-opacity="1" /><path clip-path="url(#clip530)" d="M689.977 1542.97 L694.861 1542.97 L694.861 1548.85 L689.977 1548.85 L689.977 1542.97 Z" fill="#000000" fill-rule="nonzero" fill-opacity="1" /><path clip-path="url(#clip530)" d="M715.047 1517.37 Q711.435 1517.37 709.607 1520.93 Q707.801 1524.47 707.801 1531.6 Q707.801 1538.71 709.607 1542.27 Q711.435 1545.82 715.047 1545.82 Q718.681 1545.82 720.486 1542.27 Q722.315 1538.71 722.315 1531.6 Q722.315 1524.47 720.486 1520.93 Q718.681 1517.37 715.047 1517.37 M715.047 1513.66 Q720.857 1513.66 723.912 1518.27 Q726.991 1522.85 726.991 1531.6 Q726.991 1540.33 723.912 1544.94 Q720.857 1549.52 715.047 1549.52 Q709.236 1549.52 706.158 1544.94 Q703.102 1540.33 703.102 1531.6 Q703.102 1522.85 706.158 1518.27 Q709.236 1513.66 715.047 1513.66 Z" fill="#000000" fill-rule="nonzero" fill-opacity="1" /><path clip-path="url(#clip530)" d="M745.208 1517.37 Q741.597 1517.37 739.769 1520.93 Q737.963 1524.47 737.963 1531.6 Q737.963 1538.71 739.769 1542.27 Q741.597 1545.82 745.208 1545.82 Q748.843 1545.82 750.648 1542.27 Q752.477 1538.71 752.477 1531.6 Q752.477 1524.47 750.648 1520.93 Q748.843 1517.37 745.208 1517.37 M745.208 1513.66 Q751.019 1513.66 754.074 1518.27 Q757.153 1522.85 757.153 1531.6 Q757.153 1540.33 754.074 1544.94 Q751.019 1549.52 745.208 1549.52 Q739.398 1549.52 736.32 1544.94 Q733.264 1540.33 733.264 1531.6 Q733.264 1522.85 736.32 1518.27 Q739.398 1513.66 745.208 1513.66 Z" fill="#000000" fill-rule="nonzero" fill-opacity="1" /><path clip-path="url(#clip530)" d="M775.37 1517.37 Q771.759 1517.37 769.93 1520.93 Q768.125 1524.47 768.125 1531.6 Q768.125 1538.71 769.93 1542.27 Q771.759 1545.82 775.37 1545.82 Q779.005 1545.82 780.81 1542.27 Q782.639 1538.71 782.639 1531.6 Q782.639 1524.47 780.81 1520.93 Q779.005 1517.37 775.37 1517.37 M775.37 1513.66 Q781.18 1513.66 784.236 1518.27 Q787.315 1522.85 787.315 1531.6 Q787.315 1540.33 784.236 1544.94 Q781.18 1549.52 775.37 1549.52 Q769.56 1549.52 766.481 1544.94 Q763.426 1540.33 763.426 1531.6 Q763.426 1522.85 766.481 1518.27 Q769.56 1513.66 775.37 1513.66 Z" fill="#000000" fill-rule="nonzero" fill-opacity="1" /><path clip-path="url(#clip530)" d="M799.56 1544.91 L815.879 1544.91 L815.879 1548.85 L793.935 1548.85 L793.935 1544.91 Q796.597 1542.16 801.18 1537.53 Q805.787 1532.88 806.967 1531.53 Q809.213 1529.01 810.092 1527.27 Q810.995 1525.51 810.995 1523.82 Q810.995 1521.07 809.051 1519.33 Q807.129 1517.6 804.028 1517.6 Q801.828 1517.6 799.375 1518.36 Q796.944 1519.13 794.166 1520.68 L794.166 1515.95 Q796.991 1514.82 799.444 1514.24 Q801.898 1513.66 803.935 1513.66 Q809.305 1513.66 812.5 1516.35 Q815.694 1519.03 815.694 1523.52 Q815.694 1525.65 814.884 1527.57 Q814.097 1529.47 811.99 1532.07 Q811.412 1532.74 808.31 1535.95 Q805.208 1539.15 799.56 1544.91 Z" fill="#000000" fill-rule="nonzero" fill-opacity="1" /><path clip-path="url(#clip530)" d="M825.74 1514.29 L844.097 1514.29 L844.097 1518.22 L830.023 1518.22 L830.023 1526.7 Q831.041 1526.35 832.06 1526.19 Q833.078 1526 834.097 1526 Q839.884 1526 843.263 1529.17 Q846.643 1532.34 846.643 1537.76 Q846.643 1543.34 843.171 1546.44 Q839.699 1549.52 833.379 1549.52 Q831.203 1549.52 828.935 1549.15 Q826.689 1548.78 824.282 1548.04 L824.282 1543.34 Q826.365 1544.47 828.588 1545.03 Q830.81 1545.58 833.287 1545.58 Q837.291 1545.58 839.629 1543.48 Q841.967 1541.37 841.967 1537.76 Q841.967 1534.15 839.629 1532.04 Q837.291 1529.94 833.287 1529.94 Q831.412 1529.94 829.537 1530.35 Q827.685 1530.77 825.74 1531.65 L825.74 1514.29 Z" fill="#000000" fill-rule="nonzero" fill-opacity="1" /><path clip-path="url(#clip530)" d="M1166.54 1517.37 Q1162.93 1517.37 1161.1 1520.93 Q1159.29 1524.47 1159.29 1531.6 Q1159.29 1538.71 1161.1 1542.27 Q1162.93 1545.82 1166.54 1545.82 Q1170.17 1545.82 1171.98 1542.27 Q1173.81 1538.71 1173.81 1531.6 Q1173.81 1524.47 1171.98 1520.93 Q1170.17 1517.37 1166.54 1517.37 M1166.54 1513.66 Q1172.35 1513.66 1175.41 1518.27 Q1178.48 1522.85 1178.48 1531.6 Q1178.48 1540.33 1175.41 1544.94 Q1172.35 1549.52 1166.54 1549.52 Q1160.73 1549.52 1157.65 1544.94 Q1154.6 1540.33 1154.6 1531.6 Q1154.6 1522.85 1157.65 1518.27 Q1160.73 1513.66 1166.54 1513.66 Z" fill="#000000" fill-rule="nonzero" fill-opacity="1" /><path clip-path="url(#clip530)" d="M1186.7 1542.97 L1191.59 1542.97 L1191.59 1548.85 L1186.7 1548.85 L1186.7 1542.97 Z" fill="#000000" fill-rule="nonzero" fill-opacity="1" /><path clip-path="url(#clip530)" d="M1211.77 1517.37 Q1208.16 1517.37 1206.33 1520.93 Q1204.53 1524.47 1204.53 1531.6 Q1204.53 1538.71 1206.33 1542.27 Q1208.16 1545.82 1211.77 1545.82 Q1215.41 1545.82 1217.21 1542.27 Q1219.04 1538.71 1219.04 1531.6 Q1219.04 1524.47 1217.21 1520.93 Q1215.41 1517.37 1211.77 1517.37 M1211.77 1513.66 Q1217.58 1513.66 1220.64 1518.27 Q1223.72 1522.85 1223.72 1531.6 Q1223.72 1540.33 1220.64 1544.94 Q1217.58 1549.52 1211.77 1549.52 Q1205.96 1549.52 1202.88 1544.94 Q1199.83 1540.33 1199.83 1531.6 Q1199.83 1522.85 1202.88 1518.27 Q1205.96 1513.66 1211.77 1513.66 Z" fill="#000000" fill-rule="nonzero" fill-opacity="1" /><path clip-path="url(#clip530)" d="M1241.93 1517.37 Q1238.32 1517.37 1236.49 1520.93 Q1234.69 1524.47 1234.69 1531.6 Q1234.69 1538.71 1236.49 1542.27 Q1238.32 1545.82 1241.93 1545.82 Q1245.57 1545.82 1247.37 1542.27 Q1249.2 1538.71 1249.2 1531.6 Q1249.2 1524.47 1247.37 1520.93 Q1245.57 1517.37 1241.93 1517.37 M1241.93 1513.66 Q1247.74 1513.66 1250.8 1518.27 Q1253.88 1522.85 1253.88 1531.6 Q1253.88 1540.33 1250.8 1544.94 Q1247.74 1549.52 1241.93 1549.52 Q1236.12 1549.52 1233.04 1544.94 Q1229.99 1540.33 1229.99 1531.6 Q1229.99 1522.85 1233.04 1518.27 Q1236.12 1513.66 1241.93 1513.66 Z" fill="#000000" fill-rule="nonzero" fill-opacity="1" /><path clip-path="url(#clip530)" d="M1272.09 1517.37 Q1268.48 1517.37 1266.66 1520.93 Q1264.85 1524.47 1264.85 1531.6 Q1264.85 1538.71 1266.66 1542.27 Q1268.48 1545.82 1272.09 1545.82 Q1275.73 1545.82 1277.53 1542.27 Q1279.36 1538.71 1279.36 1531.6 Q1279.36 1524.47 1277.53 1520.93 Q1275.73 1517.37 1272.09 1517.37 M1272.09 1513.66 Q1277.91 1513.66 1280.96 1518.27 Q1284.04 1522.85 1284.04 1531.6 Q1284.04 1540.33 1280.96 1544.94 Q1277.91 1549.52 1272.09 1549.52 Q1266.28 1549.52 1263.21 1544.94 Q1260.15 1540.33 1260.15 1531.6 Q1260.15 1522.85 1263.21 1518.27 Q1266.28 1513.66 1272.09 1513.66 Z" fill="#000000" fill-rule="nonzero" fill-opacity="1" /><path clip-path="url(#clip530)" d="M1292.3 1514.29 L1310.66 1514.29 L1310.66 1518.22 L1296.59 1518.22 L1296.59 1526.7 Q1297.6 1526.35 1298.62 1526.19 Q1299.64 1526 1300.66 1526 Q1306.45 1526 1309.83 1529.17 Q1313.21 1532.34 1313.21 1537.76 Q1313.21 1543.34 1309.73 1546.44 Q1306.26 1549.52 1299.94 1549.52 Q1297.77 1549.52 1295.5 1549.15 Q1293.25 1548.78 1290.84 1548.04 L1290.84 1543.34 Q1292.93 1544.47 1295.15 1545.03 Q1297.37 1545.58 1299.85 1545.58 Q1303.85 1545.58 1306.19 1543.48 Q1308.53 1541.37 1308.53 1537.76 Q1308.53 1534.15 1306.19 1532.04 Q1303.85 1529.94 1299.85 1529.94 Q1297.97 1529.94 1296.1 1530.35 Q1294.25 1530.77 1292.3 1531.65 L1292.3 1514.29 Z" fill="#000000" fill-rule="nonzero" fill-opacity="1" /><path clip-path="url(#clip530)" d="M1332.42 1517.37 Q1328.81 1517.37 1326.98 1520.93 Q1325.17 1524.47 1325.17 1531.6 Q1325.17 1538.71 1326.98 1542.27 Q1328.81 1545.82 1332.42 1545.82 Q1336.05 1545.82 1337.86 1542.27 Q1339.69 1538.71 1339.69 1531.6 Q1339.69 1524.47 1337.86 1520.93 Q1336.05 1517.37 1332.42 1517.37 M1332.42 1513.66 Q1338.23 1513.66 1341.28 1518.27 Q1344.36 1522.85 1344.36 1531.6 Q1344.36 1540.33 1341.28 1544.94 Q1338.23 1549.52 1332.42 1549.52 Q1326.61 1549.52 1323.53 1544.94 Q1320.47 1540.33 1320.47 1531.6 Q1320.47 1522.85 1323.53 1518.27 Q1326.61 1513.66 1332.42 1513.66 Z" fill="#000000" fill-rule="nonzero" fill-opacity="1" /><path clip-path="url(#clip530)" d="M1664.26 1517.37 Q1660.65 1517.37 1658.82 1520.93 Q1657.01 1524.47 1657.01 1531.6 Q1657.01 1538.71 1658.82 1542.27 Q1660.65 1545.82 1664.26 1545.82 Q1667.89 1545.82 1669.7 1542.27 Q1671.53 1538.71 1671.53 1531.6 Q1671.53 1524.47 1669.7 1520.93 Q1667.89 1517.37 1664.26 1517.37 M1664.26 1513.66 Q1670.07 1513.66 1673.13 1518.27 Q1676.2 1522.85 1676.2 1531.6 Q1676.2 1540.33 1673.13 1544.94 Q1670.07 1549.52 1664.26 1549.52 Q1658.45 1549.52 1655.37 1544.94 Q1652.32 1540.33 1652.32 1531.6 Q1652.32 1522.85 1655.37 1518.27 Q1658.45 1513.66 1664.26 1513.66 Z" fill="#000000" fill-rule="nonzero" fill-opacity="1" /><path clip-path="url(#clip530)" d="M1684.42 1542.97 L1689.31 1542.97 L1689.31 1548.85 L1684.42 1548.85 L1684.42 1542.97 Z" fill="#000000" fill-rule="nonzero" fill-opacity="1" /><path clip-path="url(#clip530)" d="M1709.49 1517.37 Q1705.88 1517.37 1704.05 1520.93 Q1702.25 1524.47 1702.25 1531.6 Q1702.25 1538.71 1704.05 1542.27 Q1705.88 1545.82 1709.49 1545.82 Q1713.13 1545.82 1714.93 1542.27 Q1716.76 1538.71 1716.76 1531.6 Q1716.76 1524.47 1714.93 1520.93 Q1713.13 1517.37 1709.49 1517.37 M1709.49 1513.66 Q1715.3 1513.66 1718.36 1518.27 Q1721.44 1522.85 1721.44 1531.6 Q1721.44 1540.33 1718.36 1544.94 Q1715.3 1549.52 1709.49 1549.52 Q1703.68 1549.52 1700.6 1544.94 Q1697.55 1540.33 1697.55 1531.6 Q1697.55 1522.85 1700.6 1518.27 Q1703.68 1513.66 1709.49 1513.66 Z" fill="#000000" fill-rule="nonzero" fill-opacity="1" /><path clip-path="url(#clip530)" d="M1739.65 1517.37 Q1736.04 1517.37 1734.21 1520.93 Q1732.41 1524.47 1732.41 1531.6 Q1732.41 1538.71 1734.21 1542.27 Q1736.04 1545.82 1739.65 1545.82 Q1743.29 1545.82 1745.09 1542.27 Q1746.92 1538.71 1746.92 1531.6 Q1746.92 1524.47 1745.09 1520.93 Q1743.29 1517.37 1739.65 1517.37 M1739.65 1513.66 Q1745.46 1513.66 1748.52 1518.27 Q1751.6 1522.85 1751.6 1531.6 Q1751.6 1540.33 1748.52 1544.94 Q1745.46 1549.52 1739.65 1549.52 Q1733.84 1549.52 1730.76 1544.94 Q1727.71 1540.33 1727.71 1531.6 Q1727.71 1522.85 1730.76 1518.27 Q1733.84 1513.66 1739.65 1513.66 Z" fill="#000000" fill-rule="nonzero" fill-opacity="1" /><path clip-path="url(#clip530)" d="M1769.81 1517.37 Q1766.2 1517.37 1764.38 1520.93 Q1762.57 1524.47 1762.57 1531.6 Q1762.57 1538.71 1764.38 1542.27 Q1766.2 1545.82 1769.81 1545.82 Q1773.45 1545.82 1775.25 1542.27 Q1777.08 1538.71 1777.08 1531.6 Q1777.08 1524.47 1775.25 1520.93 Q1773.45 1517.37 1769.81 1517.37 M1769.81 1513.66 Q1775.63 1513.66 1778.68 1518.27 Q1781.76 1522.85 1781.76 1531.6 Q1781.76 1540.33 1778.68 1544.94 Q1775.63 1549.52 1769.81 1549.52 Q1764 1549.52 1760.93 1544.94 Q1757.87 1540.33 1757.87 1531.6 Q1757.87 1522.85 1760.93 1518.27 Q1764 1513.66 1769.81 1513.66 Z" fill="#000000" fill-rule="nonzero" fill-opacity="1" /><path clip-path="url(#clip530)" d="M1788.8 1514.29 L1811.02 1514.29 L1811.02 1516.28 L1798.47 1548.85 L1793.59 1548.85 L1805.39 1518.22 L1788.8 1518.22 L1788.8 1514.29 Z" fill="#000000" fill-rule="nonzero" fill-opacity="1" /><path clip-path="url(#clip530)" d="M1820.18 1514.29 L1838.54 1514.29 L1838.54 1518.22 L1824.47 1518.22 L1824.47 1526.7 Q1825.49 1526.35 1826.5 1526.19 Q1827.52 1526 1828.54 1526 Q1834.33 1526 1837.71 1529.17 Q1841.09 1532.34 1841.09 1537.76 Q1841.09 1543.34 1837.62 1546.44 Q1834.14 1549.52 1827.82 1549.52 Q1825.65 1549.52 1823.38 1549.15 Q1821.13 1548.78 1818.73 1548.04 L1818.73 1543.34 Q1820.81 1544.47 1823.03 1545.03 Q1825.25 1545.58 1827.73 1545.58 Q1831.74 1545.58 1834.07 1543.48 Q1836.41 1541.37 1836.41 1537.76 Q1836.41 1534.15 1834.07 1532.04 Q1831.74 1529.94 1827.73 1529.94 Q1825.86 1529.94 1823.98 1530.35 Q1822.13 1530.77 1820.18 1531.65 L1820.18 1514.29 Z" fill="#000000" fill-rule="nonzero" fill-opacity="1" /><path clip-path="url(#clip530)" d="M2160.98 1517.37 Q2157.37 1517.37 2155.54 1520.93 Q2153.74 1524.47 2153.74 1531.6 Q2153.74 1538.71 2155.54 1542.27 Q2157.37 1545.82 2160.98 1545.82 Q2164.62 1545.82 2166.42 1542.27 Q2168.25 1538.71 2168.25 1531.6 Q2168.25 1524.47 2166.42 1520.93 Q2164.62 1517.37 2160.98 1517.37 M2160.98 1513.66 Q2166.79 1513.66 2169.85 1518.27 Q2172.93 1522.85 2172.93 1531.6 Q2172.93 1540.33 2169.85 1544.94 Q2166.79 1549.52 2160.98 1549.52 Q2155.17 1549.52 2152.1 1544.94 Q2149.04 1540.33 2149.04 1531.6 Q2149.04 1522.85 2152.1 1518.27 Q2155.17 1513.66 2160.98 1513.66 Z" fill="#000000" fill-rule="nonzero" fill-opacity="1" /><path clip-path="url(#clip530)" d="M2181.15 1542.97 L2186.03 1542.97 L2186.03 1548.85 L2181.15 1548.85 L2181.15 1542.97 Z" fill="#000000" fill-rule="nonzero" fill-opacity="1" /><path clip-path="url(#clip530)" d="M2206.22 1517.37 Q2202.6 1517.37 2200.78 1520.93 Q2198.97 1524.47 2198.97 1531.6 Q2198.97 1538.71 2200.78 1542.27 Q2202.6 1545.82 2206.22 1545.82 Q2209.85 1545.82 2211.66 1542.27 Q2213.48 1538.71 2213.48 1531.6 Q2213.48 1524.47 2211.66 1520.93 Q2209.85 1517.37 2206.22 1517.37 M2206.22 1513.66 Q2212.03 1513.66 2215.08 1518.27 Q2218.16 1522.85 2218.16 1531.6 Q2218.16 1540.33 2215.08 1544.94 Q2212.03 1549.52 2206.22 1549.52 Q2200.41 1549.52 2197.33 1544.94 Q2194.27 1540.33 2194.27 1531.6 Q2194.27 1522.85 2197.33 1518.27 Q2200.41 1513.66 2206.22 1513.66 Z" fill="#000000" fill-rule="nonzero" fill-opacity="1" /><path clip-path="url(#clip530)" d="M2236.38 1517.37 Q2232.77 1517.37 2230.94 1520.93 Q2229.13 1524.47 2229.13 1531.6 Q2229.13 1538.71 2230.94 1542.27 Q2232.77 1545.82 2236.38 1545.82 Q2240.01 1545.82 2241.82 1542.27 Q2243.65 1538.71 2243.65 1531.6 Q2243.65 1524.47 2241.82 1520.93 Q2240.01 1517.37 2236.38 1517.37 M2236.38 1513.66 Q2242.19 1513.66 2245.24 1518.27 Q2248.32 1522.85 2248.32 1531.6 Q2248.32 1540.33 2245.24 1544.94 Q2242.19 1549.52 2236.38 1549.52 Q2230.57 1549.52 2227.49 1544.94 Q2224.43 1540.33 2224.43 1531.6 Q2224.43 1522.85 2227.49 1518.27 Q2230.57 1513.66 2236.38 1513.66 Z" fill="#000000" fill-rule="nonzero" fill-opacity="1" /><path clip-path="url(#clip530)" d="M2257.35 1544.91 L2264.99 1544.91 L2264.99 1518.55 L2256.68 1520.21 L2256.68 1515.95 L2264.94 1514.29 L2269.62 1514.29 L2269.62 1544.91 L2277.26 1544.91 L2277.26 1548.85 L2257.35 1548.85 L2257.35 1544.91 Z" fill="#000000" fill-rule="nonzero" fill-opacity="1" /><path clip-path="url(#clip530)" d="M2296.7 1517.37 Q2293.09 1517.37 2291.26 1520.93 Q2289.46 1524.47 2289.46 1531.6 Q2289.46 1538.71 2291.26 1542.27 Q2293.09 1545.82 2296.7 1545.82 Q2300.34 1545.82 2302.14 1542.27 Q2303.97 1538.71 2303.97 1531.6 Q2303.97 1524.47 2302.14 1520.93 Q2300.34 1517.37 2296.7 1517.37 M2296.7 1513.66 Q2302.51 1513.66 2305.57 1518.27 Q2308.65 1522.85 2308.65 1531.6 Q2308.65 1540.33 2305.57 1544.94 Q2302.51 1549.52 2296.7 1549.52 Q2290.89 1549.52 2287.81 1544.94 Q2284.76 1540.33 2284.76 1531.6 Q2284.76 1522.85 2287.81 1518.27 Q2290.89 1513.66 2296.7 1513.66 Z" fill="#000000" fill-rule="nonzero" fill-opacity="1" /><path clip-path="url(#clip530)" d="M2326.86 1517.37 Q2323.25 1517.37 2321.42 1520.93 Q2319.62 1524.47 2319.62 1531.6 Q2319.62 1538.71 2321.42 1542.27 Q2323.25 1545.82 2326.86 1545.82 Q2330.5 1545.82 2332.3 1542.27 Q2334.13 1538.71 2334.13 1531.6 Q2334.13 1524.47 2332.3 1520.93 Q2330.5 1517.37 2326.86 1517.37 M2326.86 1513.66 Q2332.67 1513.66 2335.73 1518.27 Q2338.81 1522.85 2338.81 1531.6 Q2338.81 1540.33 2335.73 1544.94 Q2332.67 1549.52 2326.86 1549.52 Q2321.05 1549.52 2317.97 1544.94 Q2314.92 1540.33 2314.92 1531.6 Q2314.92 1522.85 2317.97 1518.27 Q2321.05 1513.66 2326.86 1513.66 Z" fill="#000000" fill-rule="nonzero" fill-opacity="1" /><polyline clip-path="url(#clip530)" style="stroke:#000000; stroke-linecap:round; stroke-linejoin:round; stroke-width:4; stroke-opacity:1; fill:none" points="193.936,1486.45 193.936,47.2441 "/>
<polyline clip-path="url(#clip530)" style="stroke:#000000; stroke-linecap:round; stroke-linejoin:round; stroke-width:4; stroke-opacity:1; fill:none" points="193.936,1445.72 212.834,1445.72 "/>
<polyline clip-path="url(#clip530)" style="stroke:#000000; stroke-linecap:round; stroke-linejoin:round; stroke-width:4; stroke-opacity:1; fill:none" points="193.936,1106.28 212.834,1106.28 "/>
<polyline clip-path="url(#clip530)" style="stroke:#000000; stroke-linecap:round; stroke-linejoin:round; stroke-width:4; stroke-opacity:1; fill:none" points="193.936,766.846 212.834,766.846 "/>
<polyline clip-path="url(#clip530)" style="stroke:#000000; stroke-linecap:round; stroke-linejoin:round; stroke-width:4; stroke-opacity:1; fill:none" points="193.936,427.411 212.834,427.411 "/>
<polyline clip-path="url(#clip530)" style="stroke:#000000; stroke-linecap:round; stroke-linejoin:round; stroke-width:4; stroke-opacity:1; fill:none" points="193.936,87.9763 212.834,87.9763 "/>
<path clip-path="url(#clip530)" d="M50.9921 1446.17 L80.6679 1446.17 L80.6679 1450.1 L50.9921 1450.1 L50.9921 1446.17 Z" fill="#000000" fill-rule="nonzero" fill-opacity="1" /><path clip-path="url(#clip530)" d="M91.5706 1459.06 L99.2095 1459.06 L99.2095 1432.69 L90.8993 1434.36 L90.8993 1430.1 L99.1632 1428.44 L103.839 1428.44 L103.839 1459.06 L111.478 1459.06 L111.478 1463 L91.5706 1463 L91.5706 1459.06 Z" fill="#000000" fill-rule="nonzero" fill-opacity="1" /><path clip-path="url(#clip530)" d="M120.922 1457.12 L125.807 1457.12 L125.807 1463 L120.922 1463 L120.922 1457.12 Z" fill="#000000" fill-rule="nonzero" fill-opacity="1" /><path clip-path="url(#clip530)" d="M145.992 1431.51 Q142.381 1431.51 140.552 1435.08 Q138.746 1438.62 138.746 1445.75 Q138.746 1452.86 140.552 1456.42 Q142.381 1459.96 145.992 1459.96 Q149.626 1459.96 151.431 1456.42 Q153.26 1452.86 153.26 1445.75 Q153.26 1438.62 151.431 1435.08 Q149.626 1431.51 145.992 1431.51 M145.992 1427.81 Q151.802 1427.81 154.857 1432.42 Q157.936 1437 157.936 1445.75 Q157.936 1454.48 154.857 1459.08 Q151.802 1463.67 145.992 1463.67 Q140.181 1463.67 137.103 1459.08 Q134.047 1454.48 134.047 1445.75 Q134.047 1437 137.103 1432.42 Q140.181 1427.81 145.992 1427.81 Z" fill="#000000" fill-rule="nonzero" fill-opacity="1" /><path clip-path="url(#clip530)" d="M51.9875 1106.73 L81.6633 1106.73 L81.6633 1110.67 L51.9875 1110.67 L51.9875 1106.73 Z" fill="#000000" fill-rule="nonzero" fill-opacity="1" /><path clip-path="url(#clip530)" d="M101.756 1092.08 Q98.1447 1092.08 96.316 1095.64 Q94.5104 1099.19 94.5104 1106.32 Q94.5104 1113.42 96.316 1116.99 Q98.1447 1120.53 101.756 1120.53 Q105.39 1120.53 107.196 1116.99 Q109.024 1113.42 109.024 1106.32 Q109.024 1099.19 107.196 1095.64 Q105.39 1092.08 101.756 1092.08 M101.756 1088.38 Q107.566 1088.38 110.621 1092.98 Q113.7 1097.57 113.7 1106.32 Q113.7 1115.04 110.621 1119.65 Q107.566 1124.23 101.756 1124.23 Q95.9456 1124.23 92.8669 1119.65 Q89.8114 1115.04 89.8114 1106.32 Q89.8114 1097.57 92.8669 1092.98 Q95.9456 1088.38 101.756 1088.38 Z" fill="#000000" fill-rule="nonzero" fill-opacity="1" /><path clip-path="url(#clip530)" d="M121.918 1117.68 L126.802 1117.68 L126.802 1123.56 L121.918 1123.56 L121.918 1117.68 Z" fill="#000000" fill-rule="nonzero" fill-opacity="1" /><path clip-path="url(#clip530)" d="M137.033 1089 L155.39 1089 L155.39 1092.94 L141.316 1092.94 L141.316 1101.41 Q142.334 1101.06 143.353 1100.9 Q144.371 1100.71 145.39 1100.71 Q151.177 1100.71 154.556 1103.89 Q157.936 1107.06 157.936 1112.47 Q157.936 1118.05 154.464 1121.15 Q150.992 1124.23 144.672 1124.23 Q142.496 1124.23 140.228 1123.86 Q137.982 1123.49 135.575 1122.75 L135.575 1118.05 Q137.658 1119.19 139.881 1119.74 Q142.103 1120.3 144.58 1120.3 Q148.584 1120.3 150.922 1118.19 Q153.26 1116.08 153.26 1112.47 Q153.26 1108.86 150.922 1106.76 Q148.584 1104.65 144.58 1104.65 Q142.705 1104.65 140.83 1105.07 Q138.978 1105.48 137.033 1106.36 L137.033 1089 Z" fill="#000000" fill-rule="nonzero" fill-opacity="1" /><path clip-path="url(#clip530)" d="M100.76 752.645 Q97.1493 752.645 95.3206 756.209 Q93.515 759.751 93.515 766.881 Q93.515 773.987 95.3206 777.552 Q97.1493 781.094 100.76 781.094 Q104.395 781.094 106.2 777.552 Q108.029 773.987 108.029 766.881 Q108.029 759.751 106.2 756.209 Q104.395 752.645 100.76 752.645 M100.76 748.941 Q106.571 748.941 109.626 753.547 Q112.705 758.131 112.705 766.881 Q112.705 775.608 109.626 780.214 Q106.571 784.797 100.76 784.797 Q94.9502 784.797 91.8715 780.214 Q88.816 775.608 88.816 766.881 Q88.816 758.131 91.8715 753.547 Q94.9502 748.941 100.76 748.941 Z" fill="#000000" fill-rule="nonzero" fill-opacity="1" /><path clip-path="url(#clip530)" d="M120.922 778.246 L125.807 778.246 L125.807 784.126 L120.922 784.126 L120.922 778.246 Z" fill="#000000" fill-rule="nonzero" fill-opacity="1" /><path clip-path="url(#clip530)" d="M145.992 752.645 Q142.381 752.645 140.552 756.209 Q138.746 759.751 138.746 766.881 Q138.746 773.987 140.552 777.552 Q142.381 781.094 145.992 781.094 Q149.626 781.094 151.431 777.552 Q153.26 773.987 153.26 766.881 Q153.26 759.751 151.431 756.209 Q149.626 752.645 145.992 752.645 M145.992 748.941 Q151.802 748.941 154.857 753.547 Q157.936 758.131 157.936 766.881 Q157.936 775.608 154.857 780.214 Q151.802 784.797 145.992 784.797 Q140.181 784.797 137.103 780.214 Q134.047 775.608 134.047 766.881 Q134.047 758.131 137.103 753.547 Q140.181 748.941 145.992 748.941 Z" fill="#000000" fill-rule="nonzero" fill-opacity="1" /><path clip-path="url(#clip530)" d="M101.756 413.21 Q98.1447 413.21 96.316 416.775 Q94.5104 420.316 94.5104 427.446 Q94.5104 434.552 96.316 438.117 Q98.1447 441.659 101.756 441.659 Q105.39 441.659 107.196 438.117 Q109.024 434.552 109.024 427.446 Q109.024 420.316 107.196 416.775 Q105.39 413.21 101.756 413.21 M101.756 409.506 Q107.566 409.506 110.621 414.113 Q113.7 418.696 113.7 427.446 Q113.7 436.173 110.621 440.779 Q107.566 445.362 101.756 445.362 Q95.9456 445.362 92.8669 440.779 Q89.8114 436.173 89.8114 427.446 Q89.8114 418.696 92.8669 414.113 Q95.9456 409.506 101.756 409.506 Z" fill="#000000" fill-rule="nonzero" fill-opacity="1" /><path clip-path="url(#clip530)" d="M121.918 438.812 L126.802 438.812 L126.802 444.691 L121.918 444.691 L121.918 438.812 Z" fill="#000000" fill-rule="nonzero" fill-opacity="1" /><path clip-path="url(#clip530)" d="M137.033 410.131 L155.39 410.131 L155.39 414.066 L141.316 414.066 L141.316 422.538 Q142.334 422.191 143.353 422.029 Q144.371 421.844 145.39 421.844 Q151.177 421.844 154.556 425.015 Q157.936 428.187 157.936 433.603 Q157.936 439.182 154.464 442.284 Q150.992 445.362 144.672 445.362 Q142.496 445.362 140.228 444.992 Q137.982 444.622 135.575 443.881 L135.575 439.182 Q137.658 440.316 139.881 440.872 Q142.103 441.427 144.58 441.427 Q148.584 441.427 150.922 439.321 Q153.26 437.214 153.26 433.603 Q153.26 429.992 150.922 427.886 Q148.584 425.779 144.58 425.779 Q142.705 425.779 140.83 426.196 Q138.978 426.613 137.033 427.492 L137.033 410.131 Z" fill="#000000" fill-rule="nonzero" fill-opacity="1" /><path clip-path="url(#clip530)" d="M91.5706 101.321 L99.2095 101.321 L99.2095 74.9555 L90.8993 76.6222 L90.8993 72.3629 L99.1632 70.6963 L103.839 70.6963 L103.839 101.321 L111.478 101.321 L111.478 105.256 L91.5706 105.256 L91.5706 101.321 Z" fill="#000000" fill-rule="nonzero" fill-opacity="1" /><path clip-path="url(#clip530)" d="M120.922 99.3767 L125.807 99.3767 L125.807 105.256 L120.922 105.256 L120.922 99.3767 Z" fill="#000000" fill-rule="nonzero" fill-opacity="1" /><path clip-path="url(#clip530)" d="M145.992 73.775 Q142.381 73.775 140.552 77.3398 Q138.746 80.8814 138.746 88.011 Q138.746 95.1174 140.552 98.6822 Q142.381 102.224 145.992 102.224 Q149.626 102.224 151.431 98.6822 Q153.26 95.1174 153.26 88.011 Q153.26 80.8814 151.431 77.3398 Q149.626 73.775 145.992 73.775 M145.992 70.0713 Q151.802 70.0713 154.857 74.6777 Q157.936 79.261 157.936 88.011 Q157.936 96.7378 154.857 101.344 Q151.802 105.928 145.992 105.928 Q140.181 105.928 137.103 101.344 Q134.047 96.7378 134.047 88.011 Q134.047 79.261 137.103 74.6777 Q140.181 70.0713 145.992 70.0713 Z" fill="#000000" fill-rule="nonzero" fill-opacity="1" /><polyline clip-path="url(#clip532)" style="stroke:#009af9; stroke-linecap:round; stroke-linejoin:round; stroke-width:4; stroke-opacity:1; fill:none" points="255.035,87.9763 263.021,87.9795 271.008,88.0274 278.995,88.235 286.982,88.794 294.968,89.9721 302.955,92.1127 310.942,95.6328 318.929,101.021 326.915,108.83 334.902,119.675 342.889,134.218 350.876,153.155 358.862,177.2 366.849,207.057 374.836,243.396 382.823,286.813 390.81,337.788 398.796,396.641 406.783,463.48 414.77,538.142 422.757,620.138 430.743,708.601 438.73,802.237 446.717,899.287 454.704,997.51 462.69,1094.19 470.677,1186.15 478.664,1269.86 486.651,1341.5 494.637,1397.18 502.624,1433.07 510.611,1445.72 518.598,1432.26 526.584,1390.8 534.571,1320.68 542.558,1222.75 550.545,1099.65 558.531,955.925 566.518,798.076 574.505,634.405 582.492,474.71 590.478,329.768 598.465,210.616 606.452,127.66 614.439,89.6657 622.425,102.696 630.412,169.121 638.399,286.813 646.386,448.667 654.372,642.586 662.359,852.014 670.346,1057.1 678.333,1236.46 686.319,1369.44 694.306,1438.67 702.293,1432.67 710.28,1348.06 718.266,1191.04 726.253,977.816 734.24,733.535 742.227,489.837 750.213,280.958 758.2,138.858 766.187,87.9763 774.174,140.452 782.161,292.74 790.147,524.468 798.134,800.157 806.121,1073.93 814.108,1296.86 822.094,1425.87 830.081,1432.67 838.068,1310.88 846.055,1079.49 854.041,781.424 862.028,476.592 870.015,230.383 878.002,99.4454 885.988,117.816 893.975,286.813 901.962,571.774 909.949,907.448 917.935,1211.84 925.922,1406.03 933.909,1435.36 941.896,1286.29 949.882,993.588 957.869,634.405 965.856,309.404 973.843,114.839 981.829,113.126 989.816,310.945 997.803,652.838 1005.79,1034.32 1013.78,1332.46 1021.76,1445.72 1029.75,1330.15 1037.74,1018.92 1045.72,616.073 1053.71,263.837 1061.7,92.8299 1069.68,172.109 1077.67,478.476 1085.66,899.287 1093.64,1271.25 1101.63,1443.21 1109.62,1339.27 1117.6,995.55 1125.59,551.92 1133.58,197.801 1141.56,91.4525 1149.55,286.813 1157.54,702.378 1165.52,1150.9 1173.51,1421.68 1181.5,1380.54 1189.49,1040.05 1197.47,561.823 1205.46,183.492 1213.45,101.021 1221.43,364.119 1229.42,841.673 1237.41,1282.25 1245.39,1444.9 1253.38,1233.44 1261.37,758.515 1269.35,285.342 1277.34,87.9763 1285.33,288.288 1293.31,775.177 1301.3,1259.95 1309.29,1444.9 1317.27,1208.69 1325.26,692.019 1333.25,220.335 1341.23,101.021 1349.22,419.625 1357.21,971.869 1365.19,1388.32 1373.18,1380.54 1381.17,945.901 1389.15,382.788 1397.14,91.0443 1405.13,286.813 1413.11,835.459 1421.1,1335.89 1429.09,1410.8 1437.07,995.55 1445.06,401.894 1453.05,90.4795 1461.03,312.49 1469.02,899.287 1477.01,1381.42 1484.99,1361.58 1492.98,847.879 1500.97,263.837 1508.96,104.931 1516.94,514.77 1524.93,1145.74 1532.92,1445.72 1540.9,1142.27 1548.89,499.377 1556.88,97.6179 1564.86,310.945 1572.85,949.916 1580.84,1418.85 1588.82,1268.45 1596.81,634.405 1604.8,126.962 1612.78,247.397 1620.77,884.958 1628.76,1406.03 1636.74,1279.53 1644.73,626.244 1652.72,116.607 1660.7,286.813 1668.69,965.904 1676.68,1434.25 1684.66,1182.86 1692.65,476.592 1700.64,88.1328 1708.62,454.2 1716.61,1172.92 1724.6,1432.67 1732.58,929.777 1740.57,236.827 1748.56,161.402 1756.54,800.157 1764.53,1400.97 1772.52,1240.95 1780.5,505.131 1788.49,87.9763 1796.48,508.979 1804.47,1252.73 1812.45,1386.63 1820.44,733.535 1828.43,121.59 1836.41,342.648 1844.4,1117.64 1852.39,1432.67 1860.37,864.396 1868.36,164.254 1876.35,276.615 1884.33,1057.1 1892.32,1440.35 1900.31,891.106 1908.29,167.157 1916.28,286.813 1924.27,1088.7 1932.25,1431 1940.24,814.709 1948.23,127.66 1956.21,377.652 1964.2,1203.92 1972.19,1379.64 1980.17,634.405 1988.16,88.695 1996.15,577.767 2004.13,1358.55 2012.12,1222.75 2020.11,374.246 2028.09,142.887 2036.08,901.329 2044.07,1445.72 2052.05,897.244 2060.04,136.511 2068.03,405.414 2076.01,1269.86 2084,1300.75 2091.99,439.506 2099.98,128.365 2107.96,899.287 2115.95,1444.79 2123.94,825.091 2131.92,104.018 2139.91,538.142 2147.9,1374.16 2155.88,1137.05 2163.87,240.754 2171.86,286.813 2179.84,1199.12 2187.83,1326.63 2195.82,430.422 2203.8,153.155 2211.79,1013.11 2219.78,1414.02 2227.76,599.875 2235.75,101.021 2243.74,868.517 2251.72,1441.58 2259.71,714.828 2267.7,88.794 2275.68,785.588 2283.67,1445.66 2291.66,764.763 "/>
<polyline clip-path="url(#clip532)" style="stroke:#e26f46; stroke-linecap:round; stroke-linejoin:round; stroke-width:4; stroke-opacity:1; fill:none" points="255.035,766.846 263.021,764.763 271.008,758.515 278.995,748.104 286.982,733.535 294.968,714.828 302.955,692.019 310.942,665.175 318.929,634.405 326.915,599.875 334.902,561.823 342.889,520.582 350.876,476.592 358.862,430.422 366.849,382.788 374.836,334.568 382.823,286.813 390.81,240.754 398.796,197.801 406.783,159.529 414.77,127.66 422.757,104.018 430.743,90.4795 438.73,88.8994 446.717,101.021 454.704,128.365 462.69,172.109 470.677,232.945 478.664,310.945 486.651,405.414 494.637,514.77 502.624,636.448 510.611,766.846 518.598,901.329 526.584,1034.32 534.571,1159.45 542.558,1269.86 550.545,1358.55 558.531,1418.85 566.518,1445 574.505,1432.67 582.492,1379.64 590.478,1286.29 598.465,1156.04 606.452,995.55 614.439,814.709 622.425,626.244 630.412,444.994 638.399,286.813 646.386,167.157 654.372,99.4454 662.359,93.3398 670.346,153.155 678.333,276.615 686.319,454.2 694.306,669.296 702.293,899.287 710.28,1117.64 718.266,1296.86 726.253,1412.1 734.24,1444.9 742.227,1386.63 750.213,1240.95 758.2,1024.71 766.187,766.846 774.174,505.131 782.161,280.958 790.147,132.719 798.134,88.794 806.121,161.402 814.108,342.648 822.094,603.915 830.081,899.287 838.068,1172.92 846.055,1369.44 854.041,1445.56 862.028,1380.54 870.015,1182.86 878.002,891.106 885.988,567.788 893.975,286.813 901.962,116.607 909.949,102.696 917.935,254.163 925.922,538.142 933.909,884.958 941.896,1203.92 949.882,1406.73 957.869,1432.67 965.856,1268.45 973.843,955.925 981.829,583.776 989.816,263.837 997.803,97.6179 1005.79,142.887 1013.78,391.42 1021.76,766.846 1029.75,1145.74 1037.74,1397.18 1045.72,1428.76 1053.71,1222.75 1061.7,847.879 1069.68,439.506 1077.67,152.267 1085.66,101.021 1093.64,312.49 1101.63,708.601 1109.62,1131.8 1117.6,1406.03 1125.59,1410.8 1133.58,1137.05 1141.56,698.233 1149.55,286.813 1157.54,91.0443 1165.52,207.057 1173.51,587.791 1181.5,1057.1 1189.49,1388.32 1197.47,1414.02 1205.46,1114.07 1213.45,634.405 1221.43,220.335 1229.42,92.1127 1237.41,325.006 1245.39,800.157 1253.38,1259.95 1261.37,1445.66 1269.35,1245.4 1277.34,766.846 1285.33,285.342 1293.31,88.0274 1301.3,300.248 1309.29,800.157 1317.27,1282.25 1325.26,1441.58 1333.25,1169.57 1341.23,634.405 1349.22,183.492 1357.21,119.675 1365.19,493.645 1373.18,1057.1 1381.17,1421.68 1389.15,1326.63 1397.14,831.314 1405.13,286.813 1413.11,91.4525 1421.1,396.641 1429.09,981.772 1437.07,1406.03 1445.06,1339.27 1453.05,825.091 1461.03,262.44 1469.02,101.021 1477.01,478.476 1484.99,1094.19 1492.98,1440.86 1500.97,1222.75 1508.96,616.073 1516.94,136.511 1524.93,203.546 1532.92,766.846 1540.9,1332.46 1548.89,1390.8 1556.88,880.854 1564.86,263.837 1572.85,113.126 1580.84,577.767 1588.82,1224.29 1596.81,1432.67 1604.8,993.588 1612.78,329.768 1620.77,98.3301 1628.76,538.142 1636.74,1211.84 1644.73,1431 1652.72,961.917 1660.7,286.813 1668.69,117.816 1676.68,642.586 1684.66,1303.31 1692.65,1380.54 1700.64,781.424 1708.62,164.254 1716.61,222.816 1724.6,899.287 1732.58,1425.87 1740.57,1191.04 1748.56,459.76 1756.54,88.794 1764.53,524.468 1772.52,1252.73 1780.5,1393.24 1788.49,766.846 1796.48,138.858 1804.47,292.74 1812.45,1043.85 1820.44,1444.9 1828.43,977.816 1836.41,236.827 1844.4,185.633 1852.39,899.287 1860.37,1438.67 1868.36,1079.49 1876.35,297.232 1884.33,153.155 1892.32,852.014 1900.31,1434.25 1908.29,1085.02 1916.28,286.813 1924.27,169.121 1932.25,907.448 1940.24,1444.03 1948.23,995.55 1956.21,210.616 1964.2,247.397 1972.19,1058.98 1980.17,1432.67 1988.16,798.076 1996.15,114.839 2004.13,434.046 2012.12,1269.86 2020.11,1320.68 2028.09,499.377 2036.08,101.43 2044.07,766.846 2052.05,1433.07 2060.04,1018.92 2068.03,192.189 2076.01,310.945 2084,1186.15 2091.99,1361.58 2099.98,536.182 2107.96,101.021 2115.95,802.237 2123.94,1443.21 2131.92,913.554 2139.91,127.66 2147.9,463.48 2155.88,1335.89 2163.87,1195.9 2171.86,286.813 2179.84,243.396 2187.83,1150.9 2195.82,1356.49 2203.8,476.592 2211.79,134.218 2219.78,971.869 2227.76,1424.86 2235.75,634.405 2243.74,95.6328 2251.72,841.673 2259.71,1443.72 2267.7,733.535 2275.68,88.235 2283.67,775.177 2291.66,1445.71 "/>
</svg>
